<svg width="24" height="24" viewBox="0 0 24 24" fill="none" xmlns="http://www.w3.org/2000/svg">
<path d="M22.7428 11.7586C22.7428 10.3935 21.6316 9.28329 20.2672 9.28329C19.6761 9.28329 19.1232 9.49953 18.677 9.87777C18.6626 9.88665 18.6477 9.89505 18.6336 9.90417C17.0239 8.87433 14.8893 8.21673 12.5282 8.12745L13.9375 4.11993L17.4549 4.96089C17.4578 6.07281 18.3624 6.97689 19.4757 6.97689C20.5898 6.97689 21.497 6.07041 21.497 4.95585C21.497 3.84081 20.5898 2.93433 19.4757 2.93433C18.6288 2.93433 17.9052 3.45801 17.6052 4.19673L13.4378 3.20073L11.7072 8.11833C9.245 8.16465 7.01372 8.83089 5.34404 9.89529C4.89452 9.50529 4.33364 9.28305 3.73172 9.28305C2.36684 9.28305 1.25732 10.3935 1.25732 11.7584C1.25732 12.6027 1.69292 13.3827 2.39876 13.8368C2.3537 14.0841 2.33017 14.3349 2.32844 14.5863C2.32844 18.159 6.65876 21.0656 11.981 21.0656C17.3042 21.0656 21.6348 18.159 21.6348 14.5863C21.6335 14.3421 21.6116 14.0985 21.5695 13.8579C22.2943 13.4072 22.7428 12.6159 22.7428 11.7586ZM15.2635 14.9634C15.0638 14.9634 14.866 14.9241 14.6815 14.8476C14.497 14.7712 14.3293 14.6591 14.1882 14.5179C14.047 14.3766 13.935 14.2089 13.8587 14.0243C13.7824 13.8398 13.7432 13.642 13.7433 13.4422C13.7434 13.1414 13.8326 12.8474 13.9998 12.5973C14.167 12.3472 14.4046 12.1523 14.6825 12.0372C14.9605 11.9222 15.2663 11.8921 15.5613 11.9509C15.8563 12.0097 16.1273 12.1546 16.34 12.3674C16.5526 12.5802 16.6974 12.8512 16.756 13.1463C16.8145 13.4414 16.7843 13.7472 16.6691 14.0251C16.5539 14.3029 16.3588 14.5404 16.1086 14.7074C15.8584 14.8744 15.5643 14.9635 15.2635 14.9634ZM15.5661 17.5568C15.5205 17.6034 14.4302 18.7138 11.964 18.7138C9.48404 18.7138 8.49284 17.5885 8.45132 17.54C8.38456 17.4616 8.35157 17.3599 8.35958 17.2572C8.36758 17.1545 8.41593 17.0592 8.49404 16.9921C8.57222 16.9258 8.6733 16.8928 8.77555 16.9002C8.87779 16.9077 8.97303 16.955 9.04076 17.0319C9.06284 17.0569 9.89036 17.937 11.964 17.937C14.0721 17.937 14.9973 17.0254 15.0072 17.0166C15.0794 16.9454 15.1767 16.9053 15.2782 16.9048C15.3796 16.9043 15.4772 16.9435 15.5502 17.014C15.6231 17.0845 15.6657 17.1807 15.6686 17.2822C15.6716 17.3836 15.6348 17.4821 15.5661 17.5568ZM7.39412 13.4422C7.39063 13.2403 7.42741 13.0396 7.50231 12.852C7.5772 12.6644 7.68872 12.4936 7.83035 12.3496C7.97198 12.2056 8.14088 12.0912 8.32719 12.0132C8.51351 11.9351 8.7135 11.895 8.9155 11.8951C9.11749 11.8952 9.31745 11.9355 9.50369 12.0137C9.68993 12.0919 9.85872 12.2065 10.0002 12.3506C10.1417 12.4948 10.2531 12.6657 10.3278 12.8534C10.4025 13.041 10.4391 13.2417 10.4354 13.4437C10.4281 13.8423 10.2646 14.2221 9.9801 14.5014C9.69556 14.7807 9.31274 14.937 8.91406 14.9368C8.51537 14.9366 8.1327 14.7799 7.84843 14.5004C7.56416 14.2209 7.40101 13.8409 7.39412 13.4422Z" fill="#4C49E3" fill-opacity="0.8"/>
</svg>
