<svg width="20" height="21" viewBox="0 0 20 21" fill="none" xmlns="http://www.w3.org/2000/svg">
<path d="M7.49992 13.8333C7.49992 14.0543 7.41212 14.2663 7.25584 14.4226C7.09956 14.5789 6.8876 14.6667 6.66659 14.6667C6.44557 14.6667 6.23361 14.5789 6.07733 14.4226C5.92105 14.2663 5.83325 14.0543 5.83325 13.8333C5.83325 13.6123 5.92105 13.4004 6.07733 13.2441C6.23361 13.0878 6.44557 13 6.66659 13C6.8876 13 7.09956 13.0878 7.25584 13.2441C7.41212 13.4004 7.49992 13.6123 7.49992 13.8333ZM10.8333 13.8333C10.8333 14.0543 10.7455 14.2663 10.5892 14.4226C10.4329 14.5789 10.2209 14.6667 9.99992 14.6667C9.7789 14.6667 9.56694 14.5789 9.41066 14.4226C9.25438 14.2663 9.16659 14.0543 9.16659 13.8333C9.16659 13.6123 9.25438 13.4004 9.41066 13.2441C9.56694 13.0878 9.7789 13 9.99992 13C10.2209 13 10.4329 13.0878 10.5892 13.2441C10.7455 13.4004 10.8333 13.6123 10.8333 13.8333ZM13.3333 14.6667C13.5543 14.6667 13.7662 14.5789 13.9225 14.4226C14.0788 14.2663 14.1666 14.0543 14.1666 13.8333C14.1666 13.6123 14.0788 13.4004 13.9225 13.2441C13.7662 13.0878 13.5543 13 13.3333 13C13.1122 13 12.9003 13.0878 12.744 13.2441C12.5877 13.4004 12.4999 13.6123 12.4999 13.8333C12.4999 14.0543 12.5877 14.2663 12.744 14.4226C12.9003 14.5789 13.1122 14.6667 13.3333 14.6667Z" fill="#1D1D1D"/>
<path fill-rule="evenodd" clip-rule="evenodd" d="M4.37508 7.1665V8.25234C4.18591 8.26567 4.00841 8.28234 3.84008 8.30567C3.09008 8.40567 2.45841 8.62234 1.95675 9.12317C1.45508 9.62484 1.24008 10.2565 1.13925 11.0065C1.04175 11.729 1.04175 12.6482 1.04175 13.7873V13.879C1.04175 15.0182 1.04175 15.9373 1.13925 16.6598C1.23925 17.4098 1.45591 18.0415 1.95675 18.5432C2.45841 19.0448 3.09008 19.2598 3.84008 19.3615C4.56258 19.4582 5.48175 19.4582 6.62091 19.4582H13.3792C14.5184 19.4582 15.4376 19.4582 16.1601 19.3615C16.9101 19.2598 17.5417 19.0448 18.0434 18.5432C18.5451 18.0415 18.7601 17.4098 18.8617 16.6598C18.9584 15.9373 18.9584 15.0182 18.9584 13.879V13.7873C18.9584 12.6482 18.9584 11.729 18.8617 11.0065C18.7601 10.2565 18.5451 9.62484 18.0434 9.12317C17.5417 8.6215 16.9101 8.4065 16.1601 8.30567C15.9824 8.28226 15.8039 8.26448 15.6251 8.25234V7.1665C15.6251 5.67466 15.0324 4.24392 13.9776 3.18903C12.9227 2.13414 11.4919 1.5415 10.0001 1.5415C8.50824 1.5415 7.0775 2.13414 6.02261 3.18903C4.96771 4.24392 4.37508 5.67466 4.37508 7.1665ZM10.0001 2.7915C8.83976 2.7915 7.72696 3.25244 6.90649 4.07291C6.08602 4.89338 5.62508 6.00618 5.62508 7.1665V8.21067C5.93591 8.20817 6.26841 8.20817 6.62091 8.20817H13.3792C13.7317 8.20817 14.0642 8.20817 14.3751 8.21067V7.1665C14.3751 4.74984 12.4167 2.7915 10.0001 2.7915ZM4.00675 9.544C3.39508 9.6265 3.07175 9.77734 2.84091 10.0073C2.61008 10.2382 2.46008 10.5615 2.37758 11.174C2.29341 11.8032 2.29175 12.6373 2.29175 13.8332C2.29175 15.029 2.29341 15.8632 2.37758 16.4932C2.46008 17.1048 2.61091 17.4282 2.84091 17.659C3.07175 17.8898 3.39508 18.0398 4.00758 18.1223C4.63591 18.2065 5.47091 18.2082 6.66675 18.2082H13.3334C14.5292 18.2082 15.3634 18.2065 15.9934 18.1223C16.6051 18.0398 16.9284 17.889 17.1592 17.659C17.3901 17.4282 17.5401 17.1048 17.6226 16.4923C17.7067 15.8632 17.7084 15.029 17.7084 13.8332C17.7084 12.6373 17.7067 11.8023 17.6226 11.1732C17.5401 10.5615 17.3892 10.2382 17.1592 10.0073C16.9284 9.7765 16.6051 9.6265 15.9926 9.544C15.3634 9.45984 14.5292 9.45817 13.3334 9.45817H6.66675C5.47091 9.45817 4.63591 9.45984 4.00675 9.544Z" fill="#1D1D1D"/>
</svg>
