<svg width="48" height="48" viewBox="0 0 48 48" fill="none" xmlns="http://www.w3.org/2000/svg">
<path d="M7 22V28C7 35.542 7 39.314 9.344 41.656C11.686 44 15.458 44 23 44H25C32.542 44 36.314 44 38.656 41.656C41 39.314 41 35.542 41 28V22" stroke="black" stroke-width="1.5"/>
<path d="M19 4H29L30.304 17.034C30.3899 17.9135 30.2908 18.8013 30.0131 19.6403C29.7353 20.4792 29.2852 21.2507 28.6914 21.9053C28.0977 22.5598 27.3736 23.0829 26.5656 23.4409C25.7576 23.7988 24.8837 23.9837 24 23.9837C23.1162 23.9837 22.2423 23.7988 21.4343 23.4409C20.6264 23.0829 19.9022 22.5598 19.3085 21.9053C18.7148 21.2507 18.2646 20.4792 17.9869 19.6403C17.7091 18.8013 17.61 17.9135 17.696 17.034L19 4Z" stroke="black" stroke-width="1.5"/>
<path d="M6.65998 10.702C7.01598 8.922 7.19399 8.032 7.55599 7.31C7.93318 6.55808 8.46427 5.89387 9.11479 5.3605C9.76531 4.82713 10.5207 4.43651 11.332 4.214C12.112 4 13.02 4 14.836 4H19L17.55 18.49C17.4735 19.3193 17.2285 20.1242 16.8301 20.8555C16.4317 21.5868 15.8882 22.2291 15.233 22.743C14.5777 23.257 13.8244 23.6318 13.0193 23.8446C12.2141 24.0573 11.374 24.1035 10.5504 23.9803C9.72681 23.8571 8.93701 23.5671 8.22936 23.128C7.52172 22.689 6.91112 22.1101 6.43496 21.4269C5.9588 20.7437 5.62708 19.9705 5.46013 19.1546C5.29317 18.3387 5.29448 17.4973 5.46399 16.682L6.65998 10.702ZM41.34 10.702C40.984 8.922 40.806 8.032 40.444 7.31C40.0668 6.55808 39.5357 5.89387 38.8852 5.3605C38.2347 4.82713 37.4792 4.43651 36.668 4.214C35.888 4 34.98 4 33.164 4H29L30.45 18.49C30.5265 19.3193 30.7715 20.1242 31.1699 20.8555C31.5683 21.5868 32.1117 22.2291 32.767 22.743C33.4223 23.257 34.1755 23.6318 34.9807 23.8446C35.7858 24.0573 36.6259 24.1035 37.4495 23.9803C38.2732 23.8571 39.063 23.5671 39.7706 23.128C40.4783 22.689 41.0888 22.1101 41.565 21.4269C42.0412 20.7437 42.3729 19.9705 42.5398 19.1546C42.7068 18.3387 42.7055 17.4973 42.536 16.682L41.34 10.702Z" stroke="black" stroke-width="1.5"/>
<path d="M19 43V37C19 35.13 19 34.196 19.402 33.5C19.6653 33.044 20.044 32.6653 20.5 32.402C21.196 32 22.13 32 24 32C25.87 32 26.804 32 27.5 32.402C27.956 32.6653 28.3347 33.044 28.598 33.5C29 34.196 29 35.13 29 37V43" stroke="black" stroke-width="1.5" stroke-linecap="round"/>
</svg>
