<svg width="30" height="36" viewBox="0 0 30 36" fill="none" xmlns="http://www.w3.org/2000/svg">
<path d="M30 9V31.5C30 32.1211 29.8828 32.7012 29.6484 33.2402C29.4141 33.7793 29.0918 34.2539 28.6816 34.6641C28.2715 35.0742 27.791 35.3965 27.2402 35.6309C26.6895 35.8652 26.1094 35.9883 25.5 36H5.25C4.62891 36 4.04883 35.8828 3.50977 35.6484C2.9707 35.4141 2.49609 35.0918 2.08594 34.6816C1.67578 34.2715 1.35352 33.7969 1.11914 33.2578C0.884766 32.7188 0.761719 32.1328 0.75 31.5V9H5.25V6.75C5.25 5.82422 5.42578 4.95117 5.77734 4.13086C6.12891 3.31055 6.61523 2.5957 7.23633 1.98633C7.85742 1.37695 8.57227 0.896484 9.38086 0.544922C10.1895 0.193359 11.0625 0.0117188 12 0C13.2188 0 14.3496 0.304687 15.3926 0.914062C16.4355 0.304687 17.5547 0 18.75 0C19.6758 0 20.5488 0.175781 21.3691 0.527344C22.1895 0.878906 22.9043 1.36523 23.5137 1.98633C24.123 2.60742 24.6035 3.32227 24.9551 4.13086C25.3066 4.93945 25.4883 5.8125 25.5 6.75V9H30ZM23.25 6.75C23.25 6.14062 23.1328 5.56055 22.8984 5.00977C22.6641 4.45898 22.3418 3.98438 21.9316 3.58594C21.5215 3.1875 21.041 2.86523 20.4902 2.61914C19.9395 2.37305 19.3594 2.25 18.75 2.25C18.2227 2.25 17.7246 2.33789 17.2559 2.51367C17.5957 2.93555 17.8652 3.35156 18.0645 3.76172C18.2637 4.17188 18.4102 4.58203 18.5039 4.99219C18.5977 5.40234 18.6621 5.81836 18.6973 6.24023C18.7324 6.66211 18.75 7.11328 18.75 7.59375V9H23.25V6.75ZM7.5 9H16.5V6.75C16.5 6.14062 16.3828 5.56055 16.1484 5.00977C15.9141 4.45898 15.5918 3.98438 15.1816 3.58594C14.7715 3.1875 14.291 2.86523 13.7402 2.61914C13.1895 2.37305 12.6094 2.25 12 2.25C11.3789 2.25 10.7988 2.36719 10.2598 2.60156C9.7207 2.83594 9.24609 3.1582 8.83594 3.56836C8.42578 3.97852 8.10352 4.45898 7.86914 5.00977C7.63477 5.56055 7.51172 6.14062 7.5 6.75V9ZM21.5977 33.75C21.1992 33.0469 21 32.2969 21 31.5V11.25H3V31.5C3 31.8164 3.05859 32.1094 3.17578 32.3789C3.29297 32.6484 3.45117 32.8828 3.65039 33.082C3.84961 33.2812 4.08984 33.4453 4.37109 33.5742C4.65234 33.7031 4.94531 33.7617 5.25 33.75H21.5977ZM27.75 11.25H23.25V31.5C23.25 31.8164 23.3086 32.1094 23.4258 32.3789C23.543 32.6484 23.7012 32.8828 23.9004 33.082C24.0996 33.2812 24.3398 33.4453 24.6211 33.5742C24.9023 33.7031 25.1953 33.7617 25.5 33.75C25.8164 33.75 26.1094 33.6914 26.3789 33.5742C26.6484 33.457 26.8828 33.2988 27.082 33.0996C27.2812 32.9004 27.4453 32.6602 27.5742 32.3789C27.7031 32.0977 27.7617 31.8047 27.75 31.5V11.25Z" fill="#7D7C81"/>
</svg>
