<svg width="600" height="600" viewBox="0 0 600 600" fill="none" xmlns="http://www.w3.org/2000/svg">
<path d="M300 590.323C459.642 590.323 589.058 525.933 589.058 446.503C589.058 367.074 459.642 302.683 300 302.683C140.357 302.683 10.9414 367.074 10.9414 446.503C10.9414 525.933 140.357 590.323 300 590.323Z" fill="#FAFAFA"/>
<path d="M553.597 371.221C552.433 374.684 551.542 378.239 550.94 381.842C549.787 388.758 550.591 412.825 550.953 419.792C550.955 419.805 550.95 419.817 550.949 419.831L549.756 420.222C549.75 420.203 549.742 420.189 549.737 420.167C548.453 413.107 548.291 388.081 549.686 381.077C550.38 377.595 551.312 374.167 552.489 370.818C553.717 367.326 555.129 363.53 557.369 360.549C557.527 360.338 557.75 360.797 557.696 360.941C556.421 364.406 554.777 367.712 553.597 371.221Z" fill="#4C49E3"/>
<path d="M554.777 367.364C557.813 365.448 561.693 362.263 563.241 354.755C564.789 347.246 566.888 340.72 566.243 339.098C565.597 337.478 558.387 344.648 554.813 352.003C551.238 359.357 552.836 363.539 554.777 367.364Z" fill="#4C49E3"/>
<path d="M557.853 372.913C557.219 371.727 559.381 368.139 564.835 364.863C570.289 361.589 578.317 359.532 579.002 360.223C579.686 360.914 573.869 367.973 567.798 370.764C561.728 373.554 558.444 374.016 557.853 372.913Z" fill="#4C49E3"/>
<path d="M534.549 348.461C535.395 347.728 543.051 354.942 545.789 362.12C548.167 368.356 548.689 372.041 547.927 373.291C547.973 373.37 548.027 373.444 548.071 373.523C548.667 374.587 549.152 375.692 549.527 376.854C550.235 379.057 550.866 381.737 550.145 384.014C550.1 384.154 549.949 383.987 549.932 383.916C549.419 381.82 549.173 379.661 548.515 377.6C548.095 376.285 547.567 375.008 546.948 373.775C545.233 373.684 541.773 370.873 538.794 365.07C535.452 358.562 533.703 349.194 534.549 348.461Z" fill="#4C49E3"/>
<path d="M552.227 390.248C551.479 389.13 553.279 385.347 558.385 381.553C563.491 377.76 571.28 374.924 572.029 375.546C572.778 376.167 567.68 383.762 561.912 387.134C556.145 390.506 552.921 391.287 552.227 390.248Z" fill="#4C49E3"/>
<path d="M550.275 378.889C550.342 378.017 551.072 377.188 551.654 376.59C552.405 375.82 553.252 375.139 554.135 374.527C556.024 373.219 558.11 372.228 560.233 371.368C560.455 371.278 560.69 371.761 560.509 371.893C558.723 373.184 556.822 374.279 554.993 375.505C554.146 376.073 553.328 376.688 552.595 377.4C552.249 377.736 551.912 378.088 551.593 378.45C551.325 378.752 551.008 379.279 550.579 379.334C550.386 379.358 550.264 379.024 550.275 378.889Z" fill="#4C49E3"/>
<path d="M551.212 390.097C551.846 389.492 552.526 388.975 553.257 388.495C553.988 388.014 554.768 387.698 555.601 387.435C555.799 387.373 555.986 387.737 555.816 387.86C554.504 388.818 553.219 389.844 552.011 390.933C551.439 391.449 550.898 392.003 550.406 392.598C549.974 393.12 549.716 393.607 549.585 394.266C549.484 394.773 548.955 394.869 548.815 394.316C548.401 392.683 550.172 391.091 551.212 390.097Z" fill="#4C49E3"/>
<path d="M549.393 399.678L548.637 400.62C546.644 400.684 541.078 397.38 537.507 392.44C533.325 386.653 532.114 380.632 532.468 379.771C532.822 378.912 540.642 382.769 545.224 389.56C547.927 393.564 549.361 397.958 549.393 399.678Z" fill="#4C49E3"/>
<g opacity="0.65">
<path d="M553.597 371.221C552.433 374.684 551.542 378.239 550.94 381.842C549.787 388.758 550.591 412.825 550.953 419.792C550.955 419.805 550.95 419.817 550.949 419.831L549.756 420.222C549.75 420.203 549.742 420.189 549.737 420.167C548.453 413.107 548.291 388.081 549.686 381.077C550.38 377.595 551.312 374.167 552.489 370.818C553.717 367.326 555.129 363.53 557.369 360.549C557.527 360.338 557.75 360.797 557.696 360.941C556.421 364.406 554.777 367.712 553.597 371.221Z" fill="white"/>
<path d="M554.777 367.364C557.813 365.448 561.693 362.263 563.241 354.755C564.789 347.246 566.888 340.72 566.243 339.098C565.597 337.478 558.387 344.648 554.813 352.003C551.238 359.357 552.836 363.539 554.777 367.364Z" fill="white"/>
<path d="M557.853 372.913C557.219 371.727 559.381 368.139 564.835 364.863C570.289 361.589 578.317 359.532 579.002 360.223C579.686 360.914 573.869 367.973 567.798 370.764C561.728 373.554 558.444 374.016 557.853 372.913Z" fill="white"/>
<path d="M534.549 348.461C535.395 347.728 543.051 354.942 545.789 362.12C548.167 368.356 548.689 372.041 547.927 373.291C547.973 373.37 548.027 373.444 548.071 373.523C548.667 374.587 549.152 375.692 549.527 376.854C550.235 379.057 550.866 381.737 550.145 384.014C550.1 384.154 549.949 383.987 549.932 383.916C549.419 381.82 549.173 379.661 548.515 377.6C548.095 376.285 547.567 375.008 546.948 373.775C545.233 373.684 541.773 370.873 538.794 365.07C535.452 358.562 533.703 349.194 534.549 348.461Z" fill="white"/>
<path d="M552.227 390.248C551.479 389.13 553.279 385.347 558.385 381.553C563.491 377.76 571.28 374.924 572.029 375.546C572.778 376.167 567.68 383.762 561.912 387.134C556.145 390.506 552.921 391.287 552.227 390.248Z" fill="white"/>
<path d="M550.275 378.889C550.342 378.017 551.072 377.188 551.654 376.59C552.405 375.82 553.252 375.139 554.135 374.527C556.024 373.219 558.11 372.228 560.233 371.368C560.455 371.278 560.69 371.761 560.509 371.893C558.723 373.184 556.822 374.279 554.993 375.505C554.146 376.073 553.328 376.688 552.595 377.4C552.249 377.736 551.912 378.088 551.593 378.45C551.325 378.752 551.008 379.279 550.579 379.334C550.386 379.358 550.264 379.024 550.275 378.889Z" fill="white"/>
<path d="M551.212 390.097C551.846 389.492 552.526 388.975 553.257 388.495C553.988 388.014 554.768 387.698 555.601 387.435C555.799 387.373 555.986 387.737 555.816 387.86C554.504 388.818 553.219 389.844 552.011 390.933C551.439 391.449 550.898 392.003 550.406 392.598C549.974 393.12 549.716 393.607 549.585 394.266C549.484 394.773 548.955 394.869 548.815 394.316C548.401 392.683 550.172 391.091 551.212 390.097Z" fill="white"/>
<path d="M549.393 399.678L548.637 400.62C546.644 400.684 541.078 397.38 537.507 392.44C533.325 386.653 532.114 380.632 532.468 379.771C532.822 378.912 540.642 382.769 545.224 389.56C547.927 393.564 549.361 397.958 549.393 399.678Z" fill="white"/>
</g>
<path d="M570.373 395.177C573.11 394.639 576.814 393.419 580.041 388.412C583.268 383.405 586.618 379.263 586.605 377.909C586.592 376.554 579.357 379.729 574.705 384.056C570.052 388.382 570.039 391.862 570.373 395.177Z" fill="#4C49E3"/>
<path d="M564.434 398.388C563.344 398.695 561.998 393.494 563.057 388.71C564.117 383.925 566.658 380.573 567.263 380.367C567.868 380.162 569.098 387.731 568.072 391.403C567.046 395.073 565.137 398.189 564.434 398.388Z" fill="#4C49E3"/>
<path d="M558.134 407.973C557.001 408.57 554.345 403.127 554.439 397.581C554.534 392.036 556.585 387.726 557.206 387.357C557.827 386.988 560.888 395.081 560.579 399.386C560.273 403.691 558.867 407.588 558.134 407.973Z" fill="#4C49E3"/>
<path d="M564.011 406.561C563.203 405.567 568.014 401.891 573.47 400.89C578.926 399.889 583.555 401.051 584.04 401.586C584.525 402.121 579.208 406.319 572.914 407.266C568.645 407.909 564.533 407.203 564.011 406.561Z" fill="#4C49E3"/>
<path d="M573.531 391.887C569.754 395.083 566.46 398.9 563.364 402.771C563.453 402.549 563.541 402.327 563.625 402.104C564.054 400.958 564.369 399.785 564.621 398.588C564.846 397.518 565.209 396.12 564.897 395.041C564.841 394.853 564.624 395.015 564.574 395.121C564.021 396.265 563.836 397.608 563.489 398.829C563.184 399.903 562.823 400.965 562.449 402.018C561.928 403.478 561.264 404.877 560.626 406.286C559.786 407.402 558.967 408.54 558.174 409.695C558.346 408.827 558.459 407.946 558.443 407.06C558.435 406.574 558.408 406.088 558.369 405.602C558.334 405.188 558.334 404.789 558.121 404.424C558.017 404.245 557.788 404.486 557.749 404.599C557.479 405.398 557.584 406.352 557.487 407.192C557.387 408.05 557.293 408.913 557.118 409.759C556.935 410.645 556.654 411.5 556.337 412.346C556.234 412.56 556.068 412.907 555.965 413.12C555.313 414.223 553.908 416.75 552.948 418.521L553.811 419.7C554.698 417.866 555.66 416.067 556.716 414.32C557.853 412.441 558.96 410.654 559.722 409.544C560.358 408.998 561.039 408.504 561.725 408.024C562.476 407.498 563.284 407.018 564.113 406.626C565.05 406.182 566.049 405.894 566.993 405.465C567.138 405.399 567.371 404.99 567.071 404.983C566.049 404.957 565.003 405.32 564.065 405.696C563.17 406.055 562.319 406.496 561.51 407.016C562.115 406.189 562.717 405.36 563.352 404.549C566.677 400.293 570.509 396.434 573.72 392.093C573.856 391.913 573.713 391.733 573.531 391.887Z" fill="#4C49E3"/>
<path d="M479.404 504.795C531.076 504.795 572.965 480.611 572.965 450.778C572.965 420.946 531.076 396.762 479.404 396.762C427.732 396.762 385.844 420.946 385.844 450.778C385.844 480.611 427.732 504.795 479.404 504.795Z" fill="#E0E0E0"/>
<path d="M168.324 453.231L288.383 384.125C290.409 382.955 293.695 382.955 295.722 384.125L473.461 486.744C475.488 487.914 475.488 489.811 473.461 490.981L353.405 560.088C351.378 561.258 348.092 561.258 346.065 560.088L168.324 457.469C166.297 456.299 166.297 454.401 168.324 453.231Z" fill="#E0E0E0"/>
<path d="M121.777 428.566L25.7134 484.029L146.004 553.634L242.067 498.016L121.777 428.566Z" fill="#E0E0E0"/>
<path d="M531.404 420.677C530.41 406.193 529.787 400.501 528.407 374.625C528.283 367.992 528.044 360.887 527.599 354.574C526.103 333.336 523.372 328.279 521.544 320.994C519.717 313.709 518.242 300.089 515.458 254.418C513.913 229.086 510.243 215.061 507.03 202.819H441.619C434.898 231.453 432.983 293.448 433.183 322.959C433.285 338.004 433.448 415.734 433.073 421.945C432.674 428.515 429.355 432.661 426.781 435.424C421.39 441.208 417.524 443.549 410.77 448.591C411.748 451.175 425.906 451.08 429.928 449.113C436.352 445.972 444.634 440.811 446.826 439.187C452.376 435.078 454.826 429.184 454.918 422.931C454.918 422.931 455.154 421.433 455.114 421.311C455.22 417.66 464.343 366.186 466.638 353.885C468.42 344.332 466.468 325.829 466.468 325.829L473.399 280.327C473.399 280.327 481.217 310.528 485.395 328.926C488.465 342.444 496.06 363.798 501.032 385.421C506.84 407.398 507.305 409.331 510.731 425.073C512.458 433.007 514.022 464.476 515.946 469.965C522.155 487.68 536.863 475.744 537.659 465.949C538.189 459.43 531.619 423.797 531.404 420.677Z" fill="#FFA8A7"/>
<path d="M397.146 457.099C396.773 457.109 396.313 461.246 398.39 462.948C400.788 464.911 407.759 468.056 416.827 466.646C425.896 465.236 430.75 462.295 434.312 459.155C437.875 456.014 442.867 451.586 446.96 450.572C450.762 449.632 456.928 447.318 458.122 446.104C459.314 444.892 459.01 439.642 459.01 439.642L397.146 457.099Z" fill="#263238"/>
<path d="M455.116 421.309C455.116 421.309 456.358 421.848 456.624 423.059C456.941 424.499 457.002 426.354 457.665 428.714C458.584 431.996 459.317 438.751 458.885 441.456C458.453 444.161 450.209 446.666 446.266 448.285C442.237 449.939 437.614 453.253 433.571 456.764C429.387 460.398 420.483 464.166 414.556 464.405C405.507 464.77 399.581 462.463 397.687 459.257C395.345 455.288 397.073 450.98 407.352 445.894C409.299 444.931 416.111 440.659 418.431 439.115C420.882 437.483 423.225 435.678 425.375 433.664C426.462 432.646 427.5 431.573 428.47 430.44C429.323 429.444 430.53 428.233 431.019 427.008C431.129 426.731 431.203 426.407 431.301 426.119C431.583 425.288 431.772 424.524 431.916 423.664C432.061 422.795 432.135 421.531 432.945 420.991C433.873 420.372 435.58 420.402 436.651 420.456C437.999 420.523 440.977 421.294 442.269 421.682C444.421 422.332 446.02 422.771 446.964 424.186C447.688 425.269 447.831 426.659 447.918 427.932C447.96 428.538 447.963 429.15 447.984 429.758C447.994 430.018 447.894 430.487 448.255 430.369C448.599 430.258 448.962 429.34 449.085 429.028C449.356 428.34 449.521 427.608 449.82 426.931C450.161 426.157 450.43 425.251 451.057 424.696C452.752 423.197 454.433 423.437 454.92 422.927C454.919 422.929 455.074 421.825 455.116 421.309Z" fill="#37474F"/>
<path d="M405.695 446.731C418.824 447.299 423.127 457.217 423.812 462.211C420.594 463.445 417.265 464.295 414.556 464.405C405.506 464.769 399.209 462.476 397.315 459.27C395.105 455.527 396.493 450.495 405.695 446.731Z" fill="#FAFAFA"/>
<path d="M425.312 448.293C425.455 448.289 425.596 448.239 425.714 448.138C425.982 447.907 426.01 447.503 425.781 447.235C423.9 445.048 418.594 440.295 413.844 440.935C413.492 440.982 413.246 441.305 413.294 441.654C413.341 442.003 413.654 442.251 414.013 442.204C418.447 441.618 423.319 446.335 424.812 448.071C424.94 448.221 425.126 448.297 425.312 448.293Z" fill="#F0F0F0"/>
<path d="M430.873 444.858C431.016 444.855 431.157 444.804 431.274 444.703C431.542 444.473 431.571 444.069 431.341 443.8C429.457 441.611 424.149 436.851 419.403 437.5C419.052 437.545 418.806 437.869 418.854 438.22C418.9 438.569 419.208 438.816 419.572 438.769C424.006 438.179 428.878 442.901 430.37 444.636C430.501 444.789 430.687 444.863 430.873 444.858Z" fill="#F0F0F0"/>
<path d="M436.006 440.969C436.149 440.965 436.291 440.915 436.408 440.814C436.677 440.584 436.706 440.179 436.476 439.911C434.594 437.722 429.267 432.967 424.538 433.611C424.186 433.657 423.94 433.98 423.988 434.329C424.035 434.68 424.345 434.923 424.708 434.879C429.136 434.292 434.014 439.011 435.506 440.746C435.634 440.897 435.819 440.974 436.006 440.969Z" fill="#F0F0F0"/>
<path d="M441.033 437.081C441.172 437.077 441.311 437.028 441.427 436.932C441.699 436.705 441.734 436.302 441.508 436.031C438.918 432.925 433.222 429.053 428.479 429.694C428.127 429.741 427.88 430.063 427.929 430.414C427.976 430.764 428.287 431.001 428.649 430.963C432.921 430.389 438.227 434.099 440.527 436.852C440.656 437.008 440.846 437.086 441.033 437.081Z" fill="#F0F0F0"/>
<path d="M513.797 465.057C514.414 471.087 515.53 475.052 517.83 478.504C520.13 481.955 524.226 482.89 528.278 481.673C532.331 480.455 537.457 477.449 538.403 472.182C539.348 466.915 539.876 463.312 538.699 457.746L513.797 465.057Z" fill="#263238"/>
<path d="M531.405 420.677C533.099 420.736 533.003 428.767 534.333 436.852C535.759 445.517 537.167 448.916 538.413 456.018C539.836 464.131 538.645 467.837 536.003 472.896C533.362 477.956 523.451 483.24 518.153 476.394C513.833 470.812 513.384 464.43 513.397 456.265C513.411 447.824 512.341 442.205 511.375 435.87C510.377 429.316 508.779 423.461 510.216 422.716C510.369 423.608 511.512 428.14 511.951 429.158C512.143 429.605 512.847 430.71 513.031 428.995C513.087 428.486 512.88 427.325 512.901 426.821C512.959 425.405 513.805 425.135 514.348 424.801C515.519 424.08 518.176 423.068 521.473 422.906C524.771 422.744 527.62 422.509 529.5 423.371C530.632 423.889 530.649 424.944 530.814 425.969C531.012 427.19 531.065 427.949 531.354 427.691C531.939 427.169 531.267 421.555 531.405 420.677Z" fill="#37474F"/>
<path d="M539.089 460.726C539.602 465.78 538.544 469.304 536.475 473.264C533.833 478.325 523.108 483.661 517.81 476.814C515.174 473.407 514.326 469.279 513.799 465.054C516.549 459.474 534.17 456.296 539.089 460.726Z" fill="#FAFAFA"/>
<path d="M517.094 456.018C517.165 456.007 517.233 455.986 517.299 455.951C517.365 455.916 525.037 452.341 532.719 453.768C533.059 453.826 533.385 453.605 533.45 453.265C533.512 452.926 533.287 452.598 532.946 452.535C524.821 451.031 516.999 454.692 516.707 454.845C516.403 455.009 516.287 455.388 516.449 455.693C516.578 455.933 516.841 456.055 517.094 456.018Z" fill="#F0F0F0"/>
<path d="M532.074 447.703C532.309 447.668 532.516 447.501 532.586 447.258C532.681 446.924 532.492 446.576 532.159 446.479C524.477 444.247 516.244 448.465 515.935 448.645C515.635 448.819 515.533 449.202 515.71 449.501C515.885 449.798 516.272 449.893 516.565 449.727C516.635 449.688 524.659 445.598 531.808 447.684C531.898 447.71 531.986 447.715 532.074 447.703Z" fill="#F0F0F0"/>
<path d="M531.556 441.979C531.788 441.945 531.991 441.782 532.065 441.545C532.167 441.212 531.983 440.862 531.652 440.76C523.195 438.143 515.405 442.699 515.117 442.892C514.829 443.085 514.753 443.474 514.945 443.761C515.138 444.049 515.534 444.127 515.815 443.933C515.878 443.888 523.409 439.523 531.28 441.956C531.373 441.986 531.466 441.992 531.556 441.979Z" fill="#F0F0F0"/>
<path d="M530.894 436.351C531.122 436.319 531.323 436.159 531.399 435.925C531.506 435.595 531.327 435.242 530.998 435.136C523.067 432.557 514.673 437.245 514.359 437.448C514.066 437.632 513.981 438.019 514.167 438.312C514.35 438.605 514.738 438.696 515.031 438.504C515.104 438.458 523.245 433.931 530.609 436.327C530.705 436.357 530.801 436.364 530.894 436.351Z" fill="#EBEBEB"/>
<path d="M512.237 202.819C514.685 220.674 515.459 225.065 518.128 264.838C520.715 303.406 520.927 309.062 521.308 313.709C522.18 324.369 526.903 328.046 528.281 353.192C529.543 376.237 530.3 404.661 530.3 404.661C530.3 404.661 527.2 408.924 518.422 409.71C510.323 410.436 506.273 407.396 506.273 407.396C506.273 407.396 491.259 353.684 487.068 340.154C481.383 321.798 473.4 289.573 473.4 289.573L468.105 326.447C468.105 326.447 469.81 344.111 466.384 360.791C462.136 381.47 457.801 403.942 457.801 403.942C457.801 403.942 452.495 406.157 445.601 405.461C436.123 404.503 432.954 402.3 432.954 402.3C432.954 402.3 430.295 339.824 430.295 317.006C430.295 294.188 430.579 238.333 431.915 202.817H512.237V202.819Z" fill="#37474F"/>
<path d="M473.4 289.575L466.822 249.651C466.822 249.651 453.61 246.162 445.128 237.293C445.758 243.905 457.508 252.385 463.01 253.704L470.353 289.08L468.103 326.448L473.4 289.575Z" fill="#263238"/>
<path d="M488.737 209.001C490.809 212.276 492.364 215.851 493.691 219.477C495.029 223.109 496.076 226.832 496.991 230.58C497.862 234.339 498.584 238.129 499.081 241.955C499.589 245.773 499.929 249.63 499.843 253.5C498.922 249.746 498.065 246.02 497.213 242.292C496.342 238.569 495.527 234.842 494.625 231.139C493.768 227.425 492.835 223.734 491.886 220.044C490.914 216.357 489.889 212.691 488.737 209.001Z" fill="#263238"/>
<path d="M493.781 210.397C495.73 212.171 497.436 214.161 499.001 216.253C500.579 218.339 501.97 220.559 503.246 222.845C504.482 225.153 505.601 227.53 506.464 230.013C507.338 232.485 508.01 235.049 508.232 237.677L504.722 230.765C503.531 228.501 502.353 226.24 501.111 224.008C499.908 221.754 498.64 219.535 497.412 217.278C496.172 215.029 494.922 212.772 493.781 210.397Z" fill="#263238"/>
<path d="M488.5 256.051C490.164 268.014 491.66 279.995 493.167 291.961C494.715 303.92 497.591 317.129 499.792 328.95C502.053 340.757 513.851 390.728 515.68 402.664C512.921 390.9 499.722 341.284 497.402 329.39C495.232 317.467 492.453 304.195 491.288 292.172C490.097 280.151 489.23 268.108 488.5 256.051Z" fill="#263238"/>
<path d="M443.734 256.568L441.764 288.043C441.473 293.287 441.136 298.528 440.898 303.77C440.658 309.004 440.348 314.266 440.434 319.442C440.541 324.641 440.868 374.902 440.16 385.421C438.924 373.704 438.359 330.068 438.004 319.481C438.038 308.843 438.938 298.392 439.878 287.899C440.852 277.421 442.113 266.966 443.734 256.568Z" fill="#263238"/>
<path d="M458.783 398.885L457.001 409.823C457.001 409.823 452.618 412.62 443.422 411.67C434.225 410.719 432.902 407.746 432.902 407.746V397.455C432.902 397.455 435.106 399.593 443.503 400.541C451.901 401.489 458.783 398.885 458.783 398.885Z" fill="#37474F"/>
<path d="M530.109 397.036L530.928 408.088C530.928 408.088 527.318 411.83 518.154 413.051C508.989 414.271 507.009 411.688 507.009 411.688L504.609 401.681C504.609 401.681 507.251 403.247 515.637 402.21C524.024 401.173 530.109 397.036 530.109 397.036Z" fill="#37474F"/>
<path opacity="0.1" d="M319.92 80.8488L236.598 22.6572L52.3379 129.04V298.15L236.598 191.766L343.379 113.208L319.92 80.8488Z" fill="#4C49E3"/>
<path d="M446.983 107.905C437.243 109.708 431.478 111.907 423.768 123.373C417.279 133.022 404.015 150.359 404.015 150.359C404.015 150.359 386.266 134.884 383.605 130.337C379.647 123.572 350.249 125.159 357.019 134.885C358.911 137.603 364.335 139.51 367.173 143.148C373.984 151.879 381.241 165.448 387.801 173.446C394.831 182.016 401.185 186.793 404.868 186.793C409.474 186.793 416.355 179.316 418.291 177.089C426.025 168.191 442.026 149.332 442.026 149.332L446.983 107.905Z" fill="#FFA8A7"/>
<path d="M373.874 134.981C373.222 134.754 372.612 133.862 372.312 133.262C371.954 132.551 371.813 131.754 371.686 130.975C371.401 129.227 371.168 127.47 370.91 125.718C370.669 124.07 370.471 122.41 370.174 120.772C369.929 119.425 369.492 118.127 368.48 117.161C367.886 116.594 366.696 117.349 367.381 118.001C368.509 119.074 368.692 120.713 368.909 122.177C369.192 124.09 369.475 126.001 369.757 127.914C370.01 129.625 370.111 131.465 370.733 133.092C371.306 134.593 372.31 135.4 373.864 135.696C374.344 135.788 374.208 135.097 373.874 134.981Z" fill="#F28F8F"/>
<path d="M446.984 107.042C437.138 108.883 433.124 110.275 427.162 117.566C421.2 124.858 408.329 144.185 408.329 144.185C408.329 144.185 410.475 151.739 416.477 157.602C422.48 163.465 428.164 165.773 428.164 165.773L443.559 149.334L446.984 107.042Z" fill="#455A64"/>
<path d="M368.359 96.5654C366.721 97.5458 367.207 100.606 368.498 107.945C369.789 115.284 372.185 131.159 372.185 131.159C372.185 131.159 368.464 132.754 365.516 134.129C362.567 135.504 357.519 136.725 355.065 134.398C352.611 132.071 355.211 129.255 359.239 127.327L353.673 107.622C353.673 107.622 353.546 104.082 359.632 100.656C365.719 97.2302 368.359 96.5654 368.359 96.5654Z" fill="#37474F"/>
<path d="M356.116 103.208C353.603 105.64 353.673 107.622 353.673 107.622L359.239 127.328C359.695 128.931 361.095 132.072 363.569 130.692C366.044 129.312 368.671 123.09 366.149 115.449C363.793 108.311 358.802 104.498 356.116 103.208Z" fill="#455A64"/>
<path opacity="0.4" d="M368.359 96.5654C368.359 96.5654 365.719 97.229 359.632 100.655C353.546 104.081 353.673 107.621 353.673 107.621L354.165 109.362C356.396 107.847 359.635 105.563 362.21 103.404C365.284 100.827 366.269 99.695 367.331 98.927C367.387 97.7066 367.696 96.9626 368.359 96.5654Z" fill="black"/>
<path d="M358.501 79.4677C358.674 78.7777 357.789 78.4537 354.502 77.8921C346.6 76.5433 337.343 75.9853 327.772 78.8881L325.311 79.5889L345.94 99.5845L344.939 103.565C344.939 103.565 359.71 99.3589 364.675 97.9453C369.641 96.5317 371.507 94.7809 372.178 92.1133L372.531 90.7081L364.729 83.1457L358.501 79.4677Z" fill="#455A64"/>
<path d="M370.209 83.5091C368.678 82.0739 365.126 81.1187 362.32 80.4263C360.209 79.9055 358.501 79.4663 358.501 79.4663C358.501 79.4663 350.456 81.0155 355.265 85.8419C360.075 90.6683 373.361 87.3023 372.178 92.1131C373.461 87.0107 372.893 86.0243 370.209 83.5091Z" fill="#37474F"/>
<path d="M355.073 80.8491C353.667 81.8403 352.864 83.4327 355.265 85.8423C356.975 87.5583 359.756 88.2375 362.577 88.6179C359.326 87.7983 356.59 85.4991 355.816 84.3399C355.04 83.1795 354.408 81.6495 355.073 80.8491Z" fill="#4C49E3"/>
<path d="M366.516 97.356C366.03 99.288 354.193 107.684 347.521 111.348C345.285 112.576 343.369 113.468 341.809 114.113C339.079 115.241 335.947 114.65 333.825 112.595L321.072 100.231C319.176 98.3928 318.404 95.6844 319.047 93.1224L320.299 88.1424C320.688 86.598 320.049 85.0836 319.23 83.8836C318.354 82.602 318.938 80.8476 320.43 80.418C321.837 80.0124 323.46 79.5504 324.867 79.1592C327.799 78.3444 331.244 81.0336 338.885 88.5C346.525 95.9664 347.922 99.6624 347.095 102.952L366.516 97.356Z" fill="#37474F"/>
<path d="M347.097 102.952C346.171 106.635 345.378 111.377 343.897 113.207C345.161 112.151 345.678 111.987 348.015 102.694L347.097 102.952Z" fill="#263238"/>
<path d="M319.231 83.8848C320.051 85.0836 320.689 86.598 320.3 88.1436L319.049 93.1236C318.406 95.6844 319.177 98.394 321.073 100.231L333.828 112.595C335.95 114.65 339.082 115.241 341.812 114.113C343.372 113.468 345.288 112.576 347.524 111.348C348.018 111.077 348.544 110.777 349.087 110.46C348.964 110.521 341.555 113.953 339.371 113.836C336.416 113.676 334.962 112.61 332.047 109.699C328.885 106.542 322.848 100.552 321.449 98.9436C320.938 98.3556 320.372 96.7296 321.268 96.1824C323.393 94.8828 325.852 94.9608 326.407 95.4996C328.037 97.0788 339.995 108.671 339.995 108.671C340.84 105.31 339.835 101.983 335.804 97.3632C331.774 92.742 325.288 86.9892 322.308 84.516C319.328 82.0428 319.302 81.0984 320.434 80.4204C318.94 80.8488 318.355 82.6032 319.231 83.8848Z" fill="#263238"/>
<path d="M339.993 108.671C339.993 108.671 340.992 105.595 338.335 101.586C335.289 96.9902 328.596 90.917 326.13 88.5278L324.775 93.9206L339.993 108.671Z" fill="#4C49E3"/>
<path d="M342.357 86.3724L343.933 87.9C345.002 88.9356 346.957 89.466 348.301 89.0832C349.645 88.7004 349.867 87.5508 348.798 86.514L347.222 84.9864C346.153 83.9496 344.198 83.4204 342.854 83.8032C341.51 84.186 341.288 85.3356 342.357 86.3724Z" fill="#263238"/>
<path d="M367.695 103.167L368.575 108.703L375.422 109.456C372.542 106.789 367.695 103.167 367.695 103.167Z" fill="#F28F8F"/>
<path d="M369.68 127.147C369.925 126.172 368.756 124.043 367.719 123.783C370.266 123.22 370.574 121.995 370.388 120.742C370.201 119.49 368.19 118.14 368.19 118.14C368.19 118.14 369.425 117.796 369.777 116.79C370.13 115.785 369.075 113.999 367.296 113.103C365.516 112.206 362.263 112.788 360.401 112.621C358.538 112.455 354.079 109.059 354.079 109.059L353.673 107.603L348.122 111.013C348.122 111.013 349.038 111.971 348.717 113.247C348.397 114.522 347.424 116.262 348.152 117.49C348.881 118.717 348.983 118.974 348.674 120.198C348.001 121.654 348.17 122.821 348.669 123.756C348.669 123.756 349.232 124.99 348.624 126.003C348.015 127.015 348.711 128.469 349.469 129.037C350.226 129.606 354.273 132.439 356.466 133.183C358.658 133.927 358.946 133.549 361.262 133.038C363.577 132.527 365.787 131.925 365.81 131.069C365.833 130.213 364.913 129.517 363.813 129.159C364.388 129.016 364.964 128.872 365.525 128.743C368.029 128.17 369.435 128.122 369.68 127.147Z" fill="#F28F8F"/>
<path d="M383.605 130.337C379.303 123.586 380.311 113.797 378.464 111.571C376.619 109.345 368.115 106.068 366.48 106.039C363.875 105.994 360.054 110.525 357.615 113.383C355.928 115.362 358.158 116.527 360.09 116.55C363.437 116.59 366.057 114.082 366.057 114.082L369.65 115.711C369.65 115.711 372.338 133.482 372.44 133.079C372.542 132.676 383.605 130.337 383.605 130.337Z" fill="#FFA8A7"/>
<path d="M404.018 150.358C407.646 153.783 412.26 158.688 413.104 163.468C414.893 157.061 408.771 150.831 406.068 147.66L404.018 150.358Z" fill="#F28F8F"/>
<path d="M489.519 103.715C494.559 104.755 500.948 106.057 507.372 107.834C513.835 109.622 514.74 109.993 516.828 110.72C516.828 110.72 520.248 125.425 518.241 160.64C517.944 165.859 514.166 179.857 513.522 190.682C512.653 205.285 513.145 211.813 514.426 224.43C514.426 224.43 501.577 236.797 465.963 234.114C438.001 232.007 430.748 219.806 430.748 219.806C430.748 219.806 431.065 175.105 431.792 154.486C432.747 127.403 440.947 111.774 446.984 107.044L465.336 103.986L489.519 103.715Z" fill="#455A64"/>
<path d="M496.805 45.8496C496.805 45.8496 501.117 46.1772 503.943 51.6132C505.362 54.3444 506.381 59.3256 502.493 73.566C499.99 82.7316 496.985 86.7276 495.645 89.2788C494.304 91.8288 491.556 92.5428 491.556 92.5428L491.841 81.5976L492.249 73.9716C492.249 73.9716 486.099 68.3904 485.569 62.91C484.888 55.8576 487.641 51.8628 487.641 51.8628L496.805 45.8496Z" fill="#37474F"/>
<path d="M498.295 46.2155C497.228 40.0631 489.424 32.7203 474.37 31.9163C462.037 31.2575 455.168 35.7179 450.526 42.6911C445.682 49.9691 449.062 59.1972 449.062 59.1972L487.816 56.6663L498.295 46.2155Z" fill="#37474F"/>
<path d="M501.844 84.8017C496.17 87.5592 493.584 83.0724 493.584 83.0724L492.732 105.644C481.845 120.216 452.788 114.95 464.704 104.036L464.727 98.8872C464.727 98.8872 462.825 98.8908 459.815 98.4072C454.794 97.6152 451.284 94.2912 449.789 88.8528C447.582 80.808 448.26 63.3781 449.589 53.8681C449.963 51.1849 451.829 48.0409 454.258 46.8409C460.286 43.8625 465.858 48.1573 474.254 51.4309C477.731 52.7869 486.162 53.3833 488.387 52.3393C485.457 55.5721 485.482 65.7877 489.798 69.9361C490.554 71.3736 491.348 72.2149 491.961 72.7525C493.797 74.3509 495.302 70.2277 496.845 68.6137C498.402 67.0117 504.19 65.5693 506.684 70.878C509.205 76.2792 507.1 82.2468 501.844 84.8017Z" fill="#FFA8A7"/>
<path d="M464.705 104.035C464.705 104.035 448.878 111.638 444.18 129.656C439.482 147.674 438.235 199.643 438.076 216.726C437.916 233.81 438.076 240.175 438.076 240.175C438.076 240.175 438.074 238.775 428.308 234.832C428.308 214.788 429.798 147.661 432.637 134.174C437.321 111.92 446.984 107.041 446.984 107.041L464.705 104.035Z" fill="#4C49E3"/>
<path d="M429 195.132C428.936 197.444 428.876 199.735 428.82 201.986C431.894 203.869 435.263 205.243 438.245 206.167C438.291 204.049 438.346 201.773 438.411 199.385C435.356 198.254 431.934 196.781 429 195.132Z" fill="#FAFAFA"/>
<path d="M428.587 212.431C428.545 214.573 428.508 216.641 428.475 218.621C431.55 220.53 434.917 221.772 438.03 222.578C438.041 220.786 438.055 218.839 438.076 216.726C438.076 216.683 438.077 216.631 438.077 216.588C435.093 215.722 431.805 214.405 428.587 212.431Z" fill="#FAFAFA"/>
<path d="M492.823 103.238L492.732 105.643C492.732 105.643 488.754 117.075 486.016 131.967C484.521 140.099 483.963 149.589 483.309 158.053C481.723 178.578 481.439 227.652 481.389 244.562C493.21 246.87 509.697 244.536 517.102 239.045C515.701 216.481 514.312 204.807 515.551 187.801C516.856 169.909 524.261 136.614 517.319 110.064C511.039 108.329 500.981 105.301 492.823 103.238Z" fill="#4C49E3"/>
<path d="M515.648 217.028C509.414 222.096 495.163 226.156 481.495 225.745C481.477 227.971 481.461 230.105 481.448 232.121C481.448 232.121 503.933 233.058 516.051 223.278C515.905 221.107 515.769 219.032 515.648 217.028Z" fill="#FAFAFA"/>
<path d="M481.707 206.873C481.676 209.024 481.648 211.155 481.622 213.255C498.088 214.051 509.643 209.691 515.169 206.951C515.098 204.607 515.061 202.29 515.073 199.946C507.744 203.845 495.884 207.961 481.707 206.873Z" fill="#FAFAFA"/>
<path d="M464.728 98.8862C471.316 98.8478 477.163 98.0342 481.051 96.395C484.939 94.7558 488.385 89.4974 489.516 84.2798C489.516 88.4786 487.674 95.9234 481.78 99.017C475.885 102.109 469.022 102.275 464.712 102.367L464.728 98.8862Z" fill="#F28F8F"/>
<path d="M473.885 60.3502L479.36 62.9038C480.036 61.3342 479.357 59.491 477.845 58.7854C476.333 58.0798 474.559 58.7806 473.885 60.3502Z" fill="#37474F"/>
<path d="M452.155 61.2576L457.895 59.226C457.39 57.6072 455.694 56.7492 454.11 57.3108C452.525 57.8724 451.649 59.6388 452.155 61.2576Z" fill="#37474F"/>
<path d="M476.88 66.8606C476.781 68.2166 475.6 69.2354 474.244 69.1346C472.888 69.035 471.869 67.8542 471.97 66.4982C472.069 65.1422 473.25 64.1234 474.606 64.2242C475.962 64.325 476.98 65.5046 476.88 66.8606Z" fill="#263238"/>
<path d="M458.255 66.0193C458.156 67.3753 456.975 68.3929 455.619 68.2933C454.263 68.1937 453.244 67.0129 453.345 65.6569C453.444 64.3009 454.625 63.2821 455.981 63.3829C457.337 63.4825 458.356 64.6633 458.255 66.0193Z" fill="#263238"/>
<path d="M466.952 62.4517L465.029 78.0349L456.173 74.6665C459.328 69.2569 462.92 65.1853 466.952 62.4517Z" fill="#F28F8F"/>
<path d="M471.508 82.2803L465.028 84.1535C465.511 86.0063 467.353 87.0887 469.143 86.5727C470.932 86.0555 471.991 84.1331 471.508 82.2803Z" fill="#B16668"/>
<path d="M470.789 83.4084C471.066 83.3592 471.337 83.3508 471.605 83.3616C471.533 84.828 470.582 86.1552 469.144 86.5716C468.782 86.676 468.422 86.6988 468.068 86.6796C467.861 85.1736 469.051 83.7216 470.789 83.4084Z" fill="#F28F8F"/>
<path d="M338.271 171.991L388.441 186.795L412.52 164.49L362.352 149.687L338.271 171.991Z" fill="#4C49E3"/>
<path opacity="0.7" d="M338.271 171.991L388.441 186.795L412.52 164.49L362.352 149.687L338.271 171.991Z" fill="white"/>
<path d="M338.271 171.991L394.314 240.523L444.483 255.325L388.441 186.794L338.271 171.991Z" fill="#4C49E3"/>
<path opacity="0.4" d="M338.271 171.991L394.314 240.523L444.483 255.325L388.441 186.794L338.271 171.991Z" fill="white"/>
<path d="M412.521 164.49L468.564 233.022L444.484 255.325L388.441 186.795L412.521 164.49Z" fill="#4C49E3"/>
<path opacity="0.6" d="M412.521 164.49L468.564 233.022L444.484 255.325L388.441 186.795L412.521 164.49Z" fill="white"/>
<path d="M366.951 180.454L359.763 178.331L415.805 246.862L422.993 248.985L366.951 180.454Z" fill="#263238"/>
<path d="M370.273 168.591L359.763 178.326L366.952 180.455L377.463 170.72L370.273 168.591Z" fill="#455A64"/>
<path opacity="0.6" d="M457.5 219.485L439.405 197.358C438.228 197.676 437.19 198.616 435.955 198.809C433.941 199.126 431.956 199.331 429.914 199.285C425.821 199.193 421.784 198.353 417.831 197.34C415.641 196.78 413.468 196.158 411.29 195.558C410.034 195.211 408.319 195.072 407.79 196.263C407.383 197.177 408.045 198.205 408.76 198.905C412.908 202.967 419.362 203.4 424.407 206.272C424.777 206.482 425.193 206.826 425.09 207.238C424.998 207.607 424.554 207.745 424.179 207.814C419.535 208.668 408.27 209.478 403.773 210.921C402.946 211.186 401.983 211.708 402.01 212.575C402.03 213.179 402.547 213.641 403.054 213.967C404.098 214.637 405.291 215.074 406.521 215.235C405.961 216.049 406.336 217.237 407.085 217.883C407.835 218.529 408.846 218.76 409.818 218.946C411.405 219.251 413.006 219.49 414.613 219.664C414.631 220.338 413.596 220.272 412.963 220.501C412.17 220.788 411.902 221.854 412.206 222.64C412.509 223.426 413.211 223.98 413.902 224.461C415.872 225.832 418.161 226.972 420.556 226.828C421.581 226.767 422.577 226.471 423.559 226.171C431.454 223.767 445.801 220.213 454.038 219.723C455.19 219.655 456.354 219.617 457.5 219.485Z" fill="#4C49E3"/>
<path d="M454.923 199.59C451.645 200.064 448.606 197.753 446.046 194.383C443.486 191.013 442.499 187.929 437.607 187.078C432.716 186.227 430.104 185.981 430.104 185.981L434.368 191.202C434.368 191.202 438.188 196.18 433.614 197.327C430.71 198.055 427.585 198.023 422.352 196.332C413.74 193.551 408.979 191.519 408.04 194.141C407.101 196.763 409.734 197.529 412.912 198.966C416.091 200.404 423.83 203.209 425.775 204.175C427.722 205.14 427.935 206.058 423.97 206.733C420.007 207.407 407.118 208.452 404.527 208.727C401.935 209.001 400.698 210.861 402.017 212.023C403.335 213.186 408.046 213.871 408.046 213.871C408.046 213.871 405.57 217.091 410.46 217.942C415.351 218.793 426.997 217.679 427.698 217.825C428.397 217.972 419.769 220.877 418.557 220.924C417.345 220.971 412.586 219.073 411.934 220.14C411.282 221.207 412.022 222.393 413.961 223.185C415.9 223.977 418.586 226.128 420.653 225.701C422.719 225.274 433.39 221.422 436.489 220.781C439.587 220.14 455.583 216.569 455.583 216.569L454.923 199.59Z" fill="#FFA8A7"/>
<path d="M516.828 110.721C509.126 115.274 502.86 127.608 501.547 139.296C500.234 150.984 497.496 180.821 497.496 180.821C497.496 180.821 471.166 192.327 464.278 194.565C457.389 196.804 449.838 198.413 446.047 194.383L448.742 218.091C448.742 218.091 475.342 213.866 487.852 211.496C501.008 209.003 509.431 206.609 513.522 204.954C520.759 202.026 522.697 201.534 524.943 189.04C526.881 178.26 528.909 157.528 530.302 146.924C531.694 136.319 533.341 115.412 516.828 110.721Z" fill="#FFA8A7"/>
<path d="M408.047 213.87C410.096 213.899 412.14 213.722 414.186 213.63L420.322 213.28L423.395 213.12C424.426 213.12 425.412 213.02 426.437 212.897L432.542 212.193C430.541 212.652 428.528 213.053 426.493 213.34C424.451 213.68 422.38 213.628 420.344 213.749C418.297 213.842 416.249 213.93 414.198 213.964C412.15 214.006 410.094 214.03 408.047 213.87Z" fill="#F28F8F"/>
<path d="M516.237 109.762C521.139 110.965 526.679 113.247 529.286 120.741C531.893 128.236 532.32 132.589 531.128 146.922C529.938 161.256 527.874 174.319 527.874 174.319C527.874 174.319 523.638 175.889 513.536 175.144C503.435 174.399 497.786 169.836 497.786 169.836C497.786 169.836 499.832 147.352 500.819 137.902C501.805 128.454 505.932 114.876 516.237 109.762Z" fill="#455A64"/>
<path d="M286.002 221.393L224.631 256.824C217.903 260.708 212.399 270.241 212.399 278.009V413.478L206.698 416.768V273.373C206.698 265.606 212.202 256.072 218.929 252.188L286.259 213.316C292.986 209.431 298.491 212.609 298.491 220.378V363.774L292.755 367.087V225.293C292.755 221.003 289.716 219.248 286.002 221.393Z" fill="#E0E0E0"/>
<path d="M339.99 523.308C339.99 516.321 335.085 507.827 329.034 504.333C325.859 502.5 323.011 502.428 321.011 503.766L313.623 507.984L329.335 534.681L336.659 530.468L336.648 530.45C338.703 529.337 339.99 526.873 339.99 523.308Z" fill="#455A64"/>
<path d="M321.365 508.753C327.415 512.246 332.32 520.741 332.32 527.727C332.32 534.714 327.415 537.546 321.365 534.053C315.315 530.559 310.41 522.065 310.41 515.078C310.41 508.092 315.315 505.26 321.365 508.753Z" fill="#37474F"/>
<path d="M317.657 519.262C317.657 516.531 319.316 515.275 321.366 516.459C323.414 517.642 325.074 520.813 325.074 523.545C325.074 526.276 323.413 527.531 321.366 526.348C319.316 525.165 317.657 521.993 317.657 519.262Z" fill="#263238"/>
<path d="M334.205 497.095C334.205 497.095 334.2 509.596 328.242 514.019C327.119 514.853 325.926 515.43 325.223 516.014C323.703 517.28 324.71 519.606 326.556 520.596C329.242 522.035 343.869 518.141 350.066 506.252L334.205 497.095Z" fill="#F0F0F0"/>
<path d="M328.528 500.357C328.528 500.357 328.523 512.857 322.565 517.281C321.442 518.115 320.249 518.692 319.546 519.276C318.025 520.542 319.032 522.868 320.879 523.858C323.565 525.297 338.191 521.403 344.388 509.514L328.528 500.357Z" fill="#FAFAFA"/>
<path d="M321.365 520.189C321.946 520.524 322.416 521.34 322.416 522.01C322.416 522.679 321.946 522.952 321.365 522.617C320.784 522.282 320.314 521.466 320.314 520.796C320.314 520.127 320.784 519.853 321.365 520.189Z" fill="#263238"/>
<path d="M221.052 454.639C221.052 447.652 216.147 439.158 210.096 435.664C206.921 433.831 204.073 433.759 202.073 435.097L194.685 439.315L210.397 466.012L217.721 461.799L217.711 461.781C219.765 460.668 221.052 458.204 221.052 454.639Z" fill="#455A64"/>
<path d="M202.427 440.083C208.477 443.576 213.382 452.071 213.382 459.057C213.382 466.044 208.477 468.876 202.427 465.383C196.377 461.889 191.472 453.395 191.472 446.408C191.472 439.422 196.377 436.591 202.427 440.083Z" fill="#37474F"/>
<path d="M198.718 450.593C198.718 447.862 200.377 446.606 202.427 447.788C204.475 448.97 206.135 452.143 206.135 454.874C206.135 457.606 204.475 458.861 202.427 457.679C200.379 456.496 198.718 453.323 198.718 450.593Z" fill="#263238"/>
<path d="M215.267 428.426C215.267 428.426 215.262 440.927 209.303 445.35C208.18 446.184 206.987 446.76 206.285 447.345C204.765 448.611 205.772 450.937 207.618 451.927C210.304 453.366 224.931 449.472 231.128 437.583L215.267 428.426Z" fill="#F0F0F0"/>
<path d="M209.59 431.687C209.59 431.687 209.585 444.188 203.627 448.61C202.504 449.444 201.311 450.021 200.609 450.606C199.088 451.872 200.095 454.197 201.942 455.187C204.628 456.626 219.254 452.732 225.451 440.844L209.59 431.687Z" fill="#FAFAFA"/>
<path d="M202.427 451.519C203.008 451.855 203.478 452.67 203.478 453.34C203.478 454.01 203.008 454.282 202.427 453.947C201.846 453.612 201.376 452.797 201.376 452.126C201.376 451.457 201.846 451.184 202.427 451.519Z" fill="#263238"/>
<path d="M200.962 420.082L304.229 360.461L464.863 453.205L361.599 512.826L200.962 420.082Z" fill="#455A64"/>
<path d="M200.962 420.082L200.963 426.707L361.599 519.45V512.826L200.962 420.082Z" fill="#37474F"/>
<path d="M464.863 453.205L464.865 459.829L361.599 519.45V512.826L464.863 453.205Z" fill="#263238"/>
<path d="M209.996 419.791L300.459 472.042L396.021 416.941L305.315 364.828L209.996 419.791Z" fill="#37474F"/>
<path d="M387.279 359.723L304.421 311.824L217.167 362.309L300.025 410.208L387.279 359.723Z" fill="#4C49E3"/>
<path opacity="0.3" d="M387.279 359.723L304.421 311.824L217.167 362.309L300.025 410.208L387.279 359.723Z" fill="white"/>
<path d="M300.024 468.121L387.28 417.636V359.722L300.024 410.207V468.121Z" fill="#4C49E3"/>
<path d="M310.183 447.174C309.837 447.174 309.513 447.089 309.218 446.92C308.454 446.477 308.013 445.504 308.013 444.254V436.395C308.013 436.39 308.013 436.385 308.013 436.379V435.797L308.415 435.869L314.577 432.25V441.033C314.577 443.267 313.244 445.787 311.542 446.77C311.078 447.038 310.615 447.174 310.183 447.174ZM309.001 436.976V444.252C309.001 445.14 309.261 445.802 309.711 446.062C310.159 446.319 310.684 446.121 311.047 445.916C312.424 445.118 313.587 442.883 313.587 441.033V440.39H311.306L310.856 437.309L309.001 436.976ZM312.162 439.401H313.588V433.976L309.913 436.134L311.733 436.458L312.162 439.401Z" fill="#455A64"/>
<path d="M311.294 453.44C311.022 453.44 310.8 453.218 310.8 452.945V446.343C310.8 446.071 311.022 445.849 311.294 445.849C311.568 445.849 311.789 446.071 311.789 446.343V452.945C311.789 453.218 311.568 453.44 311.294 453.44Z" fill="#455A64"/>
<path d="M308.424 455.094C308.253 455.094 308.086 455.007 307.996 454.847C307.86 454.611 307.94 454.309 308.176 454.173L313.917 450.859C314.149 450.718 314.455 450.798 314.592 451.039C314.728 451.276 314.648 451.577 314.412 451.714L308.671 455.027C308.594 455.074 308.509 455.094 308.424 455.094Z" fill="#455A64"/>
<path d="M328.872 443.726C328.679 443.726 328.496 443.679 328.331 443.586C327.955 443.37 327.739 442.937 327.739 442.397V441.044C327.739 440.771 327.961 440.549 328.234 440.549C328.506 440.549 328.728 440.771 328.728 441.044V442.397C328.728 442.6 328.784 442.707 328.823 442.73C328.861 442.75 328.978 442.743 329.144 442.644C329.579 442.388 330.064 441.406 330.064 440.41V431.63C330.064 431.357 330.286 431.135 330.558 431.135C330.832 431.135 331.052 431.357 331.052 431.63V440.41C331.052 441.696 330.45 443.022 329.65 443.494C329.387 443.648 329.122 443.726 328.872 443.726Z" fill="#455A64"/>
<path d="M323.668 436.049V435.192C323.668 431.166 326.502 426.254 329.987 424.242C331.772 423.215 333.476 423.064 334.778 423.818C336.086 424.572 336.803 426.12 336.803 428.176V428.462L323.668 436.049ZM332.946 424.334C332.2 424.334 331.361 424.592 330.48 425.099C327.52 426.807 325.067 430.788 324.702 434.309L335.81 427.895C335.753 426.35 335.214 425.212 334.283 424.673C333.89 424.445 333.438 424.334 332.946 424.334Z" fill="#455A64"/>
<path d="M346.618 433.606C346.346 433.606 346.124 433.384 346.124 433.111V416.295C346.124 416.021 346.346 415.8 346.618 415.8C346.891 415.8 347.113 416.021 347.113 416.295V433.111C347.113 433.385 346.891 433.606 346.618 433.606Z" fill="#455A64"/>
<path d="M345.175 420.131C345.108 420.131 345.043 420.118 344.979 420.09C344.727 419.982 344.615 419.692 344.723 419.44L346.481 415.378L348.441 417.644C348.621 417.849 348.599 418.161 348.392 418.34C348.181 418.517 347.873 418.496 347.695 418.289L346.764 417.213L345.629 419.834C345.548 420.018 345.365 420.131 345.175 420.131Z" fill="#455A64"/>
<path d="M351.191 431.001C350.918 431.001 350.696 430.779 350.696 430.506V413.688C350.696 413.415 350.918 413.194 351.191 413.194C351.463 413.194 351.685 413.415 351.685 413.688V430.506C351.684 430.78 351.463 431.001 351.191 431.001Z" fill="#455A64"/>
<path d="M349.744 417.525C349.677 417.525 349.613 417.513 349.548 417.484C349.296 417.376 349.182 417.084 349.291 416.833L351.049 412.771L353.01 415.037C353.19 415.242 353.167 415.554 352.961 415.733C352.75 415.909 352.441 415.89 352.264 415.683L351.331 414.606L350.196 417.227C350.117 417.413 349.935 417.525 349.744 417.525Z" fill="#455A64"/>
<path d="M300.025 468.121L217.167 420.223V362.309L300.025 410.208V468.121Z" fill="#4C49E3"/>
<path opacity="0.1" d="M300.025 468.121L217.167 420.223V362.309L300.025 410.208V468.121Z" fill="black"/>
<path d="M227.642 397.333L251.954 411.378C252.557 411.726 253.05 412.582 253.05 413.279L253.052 430.18C253.052 431.57 252.066 432.14 250.862 431.444L226.546 417.401C225.942 417.053 225.449 416.199 225.449 415.501L225.45 398.599C225.45 397.206 226.437 396.637 227.642 397.333Z" fill="#FAFAFA"/>
<path d="M227.037 399.962L227.863 400.44V415.358L227.037 414.881V399.962Z" fill="#455A64"/>
<path d="M230.404 401.906L231.831 402.744L231.829 417.662L230.404 416.823V401.906Z" fill="#455A64"/>
<path d="M233.771 403.849L234.599 404.327L234.598 419.245L233.771 418.768V403.849Z" fill="#455A64"/>
<path d="M236.31 405.288L237.966 406.271V421.188L236.31 420.206V405.288Z" fill="#455A64"/>
<path d="M240.507 407.736L241.333 408.213V423.131L240.505 422.653L240.507 407.736Z" fill="#455A64"/>
<path d="M242.931 409.104L244.701 410.156V425.075L242.931 424.022V409.104Z" fill="#455A64"/>
<path d="M247.241 411.622L248.069 412.1L248.068 427.018L247.241 426.54V411.622Z" fill="#455A64"/>
<path d="M249.162 412.716L249.576 412.955L249.575 427.872L249.162 427.633V412.716Z" fill="#455A64"/>
<path d="M245.706 410.809L246.12 411.048L246.119 425.966L245.706 425.727V410.809Z" fill="#455A64"/>
<path d="M238.923 406.836L239.337 407.076L239.336 421.993L238.923 421.754V406.836Z" fill="#455A64"/>
<path d="M235.209 404.705L235.622 404.943V419.861L235.208 419.622L235.209 404.705Z" fill="#455A64"/>
<path d="M232.54 403.231L232.954 403.47L232.953 418.389L232.54 418.15V403.231Z" fill="#455A64"/>
<path d="M228.922 401.035L229.336 401.274L229.335 416.191L228.922 415.952V401.035Z" fill="#455A64"/>
<path d="M250.608 413.565L251.436 414.043L251.435 428.96L250.608 428.483V413.565Z" fill="#455A64"/>
<path d="M251.948 391.189L257.618 394.463V385.663L251.948 382.39V391.189Z" fill="#37474F"/>
<path d="M257.618 385.664L344.873 335.179L339.203 331.904L251.948 382.389L257.618 385.664Z" fill="#455A64"/>
<path opacity="0.1" d="M218.368 361.621L285.741 400.398L371.713 350.706L304.421 311.824L218.368 361.621Z" fill="black"/>
<path d="M364.889 294.962L297.809 256.303L218.512 302.159L285.592 340.818L364.889 294.962Z" fill="#4C49E3"/>
<path opacity="0.7" d="M364.889 294.962L297.809 256.303L218.512 302.159L285.592 340.818L364.889 294.962Z" fill="white"/>
<path d="M285.592 396.441L364.889 350.586V294.961L285.592 340.817V396.441Z" fill="#4C49E3"/>
<path opacity="0.6" d="M285.592 396.441L364.889 350.586V294.961L285.592 340.817V396.441Z" fill="white"/>
<path d="M296.354 375.048C296.054 375.048 295.772 374.973 295.515 374.826C294.85 374.441 294.467 373.595 294.467 372.507V365.675C294.467 365.67 294.467 365.666 294.467 365.661V365.156L294.816 365.219L300.174 362.072V369.708C300.174 371.651 299.015 373.842 297.536 374.696C297.132 374.929 296.729 375.048 296.354 375.048ZM295.326 366.181V372.507C295.326 373.279 295.552 373.855 295.944 374.081C296.333 374.304 296.79 374.132 297.106 373.953C298.304 373.26 299.315 371.317 299.315 369.708V369.149H297.332L296.94 366.47L295.326 366.181ZM298.074 368.289H299.314V363.572L296.118 365.45L297.701 365.732L298.074 368.289Z" fill="#455A64"/>
<path d="M297.32 380.495C297.082 380.495 296.89 380.303 296.89 380.065V374.324C296.89 374.087 297.082 373.895 297.32 373.895C297.557 373.895 297.749 374.087 297.749 374.324V380.065C297.749 380.303 297.557 380.495 297.32 380.495Z" fill="#455A64"/>
<path d="M294.825 381.935C294.677 381.935 294.532 381.858 294.454 381.72C294.335 381.515 294.405 381.252 294.61 381.133L299.601 378.253C299.802 378.129 300.069 378.199 300.186 378.41C300.305 378.615 300.236 378.878 300.03 378.996L295.04 381.876C294.972 381.917 294.899 381.935 294.825 381.935Z" fill="#455A64"/>
<path d="M312.604 372.049C312.436 372.049 312.277 372.008 312.133 371.928C311.807 371.74 311.619 371.364 311.619 370.895V369.718C311.619 369.48 311.811 369.288 312.048 369.288C312.286 369.288 312.478 369.48 312.478 369.718V370.895C312.478 371.071 312.527 371.164 312.561 371.183C312.594 371.201 312.695 371.194 312.84 371.11C313.218 370.886 313.639 370.033 313.639 369.167V361.534C313.639 361.296 313.831 361.104 314.069 361.104C314.307 361.104 314.499 361.296 314.499 361.534V369.167C314.499 370.285 313.975 371.438 313.279 371.848C313.05 371.982 312.82 372.049 312.604 372.049Z" fill="#455A64"/>
<path d="M308.079 365.376V364.631C308.079 361.131 310.542 356.86 313.572 355.11C315.123 354.217 316.605 354.085 317.737 354.741C318.874 355.397 319.499 356.742 319.499 358.53V358.779L308.079 365.376ZM316.146 355.189C315.497 355.189 314.767 355.414 314.002 355.855C311.428 357.34 309.295 360.802 308.977 363.863L318.634 358.287C318.585 356.943 318.117 355.954 317.307 355.486C316.965 355.287 316.573 355.189 316.146 355.189Z" fill="#455A64"/>
<path d="M328.032 363.251C327.795 363.251 327.603 363.059 327.603 362.822V348.201C327.603 347.963 327.795 347.771 328.032 347.771C328.27 347.771 328.462 347.963 328.462 348.201V362.822C328.462 363.058 328.269 363.251 328.032 363.251Z" fill="#455A64"/>
<path d="M326.777 351.536C326.72 351.536 326.663 351.525 326.607 351.5C326.387 351.407 326.289 351.153 326.384 350.935L327.913 347.403L329.618 349.373C329.774 349.551 329.754 349.823 329.576 349.977C329.392 350.132 329.123 350.113 328.969 349.934L328.158 348.999L327.171 351.277C327.101 351.438 326.942 351.536 326.777 351.536Z" fill="#455A64"/>
<path d="M332.007 360.986C331.769 360.986 331.577 360.794 331.577 360.556V345.934C331.577 345.697 331.769 345.505 332.007 345.505C332.244 345.505 332.436 345.697 332.436 345.934V360.556C332.436 360.794 332.244 360.986 332.007 360.986Z" fill="#455A64"/>
<path d="M330.749 349.27C330.69 349.27 330.635 349.259 330.579 349.234C330.359 349.14 330.261 348.887 330.355 348.668L331.884 345.137L333.589 347.106C333.747 347.285 333.726 347.556 333.547 347.711C333.364 347.864 333.095 347.847 332.94 347.667L332.13 346.731L331.143 349.009C331.073 349.172 330.915 349.27 330.749 349.27Z" fill="#455A64"/>
<path d="M285.592 396.442L218.512 357.782V302.159L285.592 340.818V396.442Z" fill="#4C49E3"/>
<path opacity="0.4" d="M285.592 396.442L218.512 357.782V302.159L285.592 340.818V396.442Z" fill="white"/>
<path d="M227.642 333.852L251.954 347.897C252.557 348.245 253.05 349.101 253.05 349.798L253.052 366.699C253.052 368.089 252.066 368.659 250.862 367.963L226.546 353.92C225.942 353.572 225.449 352.717 225.449 352.02L225.45 335.118C225.45 333.726 226.437 333.156 227.642 333.852Z" fill="#FAFAFA"/>
<path d="M227.037 336.482L227.863 336.96V351.877L227.037 351.4V336.482Z" fill="#455A64"/>
<path d="M230.404 338.425L231.831 339.264L231.829 354.181L230.404 353.342V338.425Z" fill="#455A64"/>
<path d="M233.771 340.369L234.599 340.847L234.598 355.764L233.771 355.286V340.369Z" fill="#455A64"/>
<path d="M236.31 341.808L237.966 342.79V357.707L236.31 356.725V341.808Z" fill="#455A64"/>
<path d="M240.507 344.255L241.333 344.732V359.651L240.505 359.173L240.507 344.255Z" fill="#455A64"/>
<path d="M242.931 345.624L244.701 346.676V361.594L242.931 360.541V345.624Z" fill="#455A64"/>
<path d="M247.241 348.142L248.069 348.619L248.068 363.536L247.241 363.059V348.142Z" fill="#455A64"/>
<path d="M249.162 349.235L249.576 349.474L249.575 364.391L249.162 364.152V349.235Z" fill="#455A64"/>
<path d="M245.706 347.329L246.12 347.568L246.119 362.485L245.706 362.246V347.329Z" fill="#455A64"/>
<path d="M238.923 343.356L239.337 343.595L239.336 358.512L238.923 358.274V343.356Z" fill="#455A64"/>
<path d="M235.209 341.224L235.622 341.464V356.381L235.208 356.142L235.209 341.224Z" fill="#455A64"/>
<path d="M232.54 339.75L232.954 339.99L232.953 354.907L232.54 354.668V339.75Z" fill="#455A64"/>
<path d="M228.922 337.554L229.336 337.793L229.335 352.711L228.922 352.473V337.554Z" fill="#455A64"/>
<path d="M250.608 350.084L251.436 350.562L251.435 365.48L250.608 365.003V350.084Z" fill="#455A64"/>
<path d="M246.219 327.821L252.534 331.466V321.667L246.219 318.021V327.821Z" fill="#37474F"/>
<path d="M252.534 321.667L331.832 275.813L325.516 272.166L246.219 318.02L252.534 321.667Z" fill="#455A64"/>
<path d="M388.986 441.904C396.539 446.265 408.786 446.265 416.339 441.904C423.893 437.544 423.893 430.473 416.339 426.112C408.786 421.752 396.539 421.752 388.986 426.112C381.432 430.473 381.432 437.544 388.986 441.904Z" fill="#37474F"/>
<path d="M418.968 433.332H418.994V400.722H386.332V433.332H386.357C386.219 435.843 387.795 438.381 391.115 440.298C397.493 443.98 407.834 443.98 414.21 440.298C417.531 438.38 419.106 435.843 418.968 433.332Z" fill="#EBEBEB"/>
<path d="M391.116 407.389C397.494 411.072 407.834 411.072 414.211 407.389C420.589 403.706 420.588 397.737 414.211 394.055C407.833 390.372 397.492 390.372 391.116 394.055C384.738 397.737 384.738 403.706 391.116 407.389Z" fill="#FAFAFA"/>
<path d="M391.82 406.844C397.808 410.226 407.517 410.226 413.505 406.844C419.493 403.462 419.493 397.981 413.505 394.599C407.517 391.218 397.808 391.218 391.82 394.599C385.831 397.981 385.831 403.464 391.82 406.844Z" fill="#EBEBEB"/>
<path d="M413.504 396.184C407.516 392.802 397.807 392.802 391.819 396.184C389.183 397.673 387.71 399.569 387.395 401.514C387.709 403.459 389.183 405.355 391.819 406.844C397.807 410.226 407.516 410.226 413.504 406.844C416.141 405.355 417.613 403.459 417.929 401.514C417.614 399.57 416.142 397.673 413.504 396.184Z" fill="#F5F5F5"/>
<path d="M386.331 427.819C386.31 430.249 387.903 432.681 391.114 434.535C397.492 438.218 407.833 438.218 414.21 434.535C417.398 432.695 418.993 430.281 418.993 427.868V406.037C418.993 408.45 417.398 410.862 414.21 412.704C407.832 416.385 397.491 416.385 391.114 412.704C387.903 410.85 386.31 408.416 386.331 405.987V427.819Z" fill="#4C49E3"/>
<path opacity="0.3" d="M386.331 427.819C386.31 430.249 387.903 432.681 391.114 434.535C397.492 438.218 407.833 438.218 414.21 434.535C417.398 432.695 418.993 430.281 418.993 427.868V406.037C418.993 408.45 417.398 410.862 414.21 412.704C407.832 416.385 397.491 416.385 391.114 412.704C387.903 410.85 386.31 408.416 386.331 405.987V427.819Z" fill="black"/>
<path opacity="0.1" d="M409.35 442.227C403.344 443.775 396.043 443.148 391.119 440.292C387.796 438.382 386.221 435.847 386.355 433.324H386.328V400.719C386.328 403.135 387.93 405.55 391.12 407.392C391.627 407.686 393.792 409.01 397.8 409.723V437.295C397.8 440.02 401.797 443.268 409.35 442.227Z" fill="black"/>
<path d="M406.39 406.537L404.657 405.537C403.25 404.725 402.875 403.626 403.817 403.082C404.759 402.539 406.663 402.756 408.07 403.567L409.802 404.567C411.209 405.379 411.584 406.478 410.642 407.022C409.7 407.567 407.796 407.349 406.39 406.537Z" fill="#E0E0E0"/>
<path d="M404.578 404.597C405.091 404.893 405.924 404.893 406.438 404.597C406.951 404.3 406.951 403.819 406.438 403.523C405.924 403.226 405.091 403.226 404.578 403.523C404.064 403.819 404.064 404.3 404.578 404.597Z" fill="#F5F5F5"/>
<path d="M408.011 406.452C408.525 406.748 409.359 406.748 409.872 406.452C410.386 406.155 410.386 405.674 409.872 405.378C409.359 405.081 408.526 405.081 408.011 405.378C407.498 405.674 407.498 406.155 408.011 406.452Z" fill="#F5F5F5"/>
<path d="M364.783 455.88C372.335 460.241 384.583 460.241 392.135 455.88C399.688 451.519 399.688 444.449 392.135 440.088C384.583 435.727 372.335 435.727 364.783 440.088C357.229 444.448 357.229 451.518 364.783 455.88Z" fill="#37474F"/>
<path d="M394.765 447.306H394.79V414.696H362.129V447.305H362.154C362.016 449.816 363.592 452.354 366.912 454.271C373.29 457.953 383.63 457.953 390.007 454.271C393.328 452.354 394.903 449.817 394.765 447.306Z" fill="#EBEBEB"/>
<path d="M366.912 421.363C373.29 425.045 383.631 425.045 390.008 421.363C396.386 417.68 396.386 411.712 390.008 408.029C383.63 404.346 373.29 404.346 366.912 408.029C360.534 411.712 360.534 417.682 366.912 421.363Z" fill="#FAFAFA"/>
<path d="M367.616 420.82C373.604 424.201 383.313 424.201 389.301 420.82C395.289 417.438 395.289 411.956 389.301 408.575C383.313 405.193 373.604 405.193 367.616 408.575C361.628 411.955 361.628 417.438 367.616 420.82Z" fill="#EBEBEB"/>
<path d="M389.301 410.159C383.313 406.777 373.604 406.777 367.616 410.159C364.979 411.648 363.507 413.544 363.191 415.489C363.506 417.434 364.979 419.33 367.616 420.82C373.604 424.201 383.313 424.201 389.301 420.82C391.937 419.33 393.41 417.434 393.725 415.489C393.411 413.544 391.939 411.647 389.301 410.159Z" fill="#F5F5F5"/>
<path d="M362.128 441.793C362.107 444.222 363.7 446.655 366.911 448.509C373.289 452.191 383.63 452.191 390.007 448.509C393.195 446.669 394.79 444.255 394.79 441.842V420.011C394.79 422.424 393.195 424.837 390.007 426.678C383.63 430.359 373.289 430.359 366.911 426.678C363.7 424.824 362.107 422.39 362.128 419.961V441.793Z" fill="#4C49E3"/>
<path opacity="0.3" d="M362.128 441.793C362.107 444.222 363.7 446.655 366.911 448.509C373.289 452.191 383.63 452.191 390.007 448.509C393.195 446.669 394.79 444.255 394.79 441.842V420.011C394.79 422.424 393.195 424.837 390.007 426.678C383.63 430.359 373.289 430.359 366.911 426.678C363.7 424.824 362.107 422.39 362.128 419.961V441.793Z" fill="black"/>
<path opacity="0.1" d="M385.147 456.201C379.141 457.749 371.84 457.122 366.915 454.266C363.593 452.357 362.017 449.821 362.151 447.299H362.125V414.693C362.125 417.109 363.727 419.525 366.917 421.367C367.424 421.661 369.589 422.984 373.597 423.697V451.269C373.597 453.995 377.593 457.243 385.147 456.201Z" fill="black"/>
<path d="M382.187 420.512L380.454 419.513C379.047 418.7 378.672 417.601 379.614 417.058C380.557 416.514 382.46 416.731 383.867 417.542L385.599 418.542C387.006 419.355 387.381 420.452 386.439 420.997C385.496 421.541 383.593 421.324 382.187 420.512Z" fill="#E0E0E0"/>
<path d="M380.374 418.571C380.888 418.867 381.721 418.867 382.234 418.571C382.748 418.274 382.748 417.793 382.234 417.497C381.721 417.2 380.888 417.2 380.374 417.497C379.86 417.793 379.86 418.274 380.374 418.571Z" fill="#F5F5F5"/>
<path d="M383.808 420.426C384.322 420.723 385.156 420.723 385.669 420.426C386.183 420.13 386.183 419.649 385.669 419.352C385.156 419.056 384.323 419.056 383.808 419.352C383.294 419.649 383.294 420.13 383.808 420.426Z" fill="#F5F5F5"/>
<path d="M340.579 469.854C348.131 474.214 360.379 474.214 367.931 469.854C375.485 465.493 375.485 458.422 367.931 454.062C360.379 449.701 348.131 449.701 340.579 454.062C333.025 458.422 333.025 465.493 340.579 469.854Z" fill="#37474F"/>
<path d="M370.56 461.28H370.584V428.671H337.923V461.28H337.948C337.81 463.791 339.386 466.329 342.706 468.246C349.084 471.928 359.423 471.928 365.801 468.246C369.123 466.329 370.698 463.791 370.56 461.28Z" fill="#EBEBEB"/>
<path d="M342.707 435.338C349.085 439.02 359.425 439.02 365.803 435.338C372.181 431.655 372.181 425.687 365.803 422.004C359.425 418.321 349.084 418.321 342.707 422.004C336.329 425.685 336.329 431.655 342.707 435.338Z" fill="#FAFAFA"/>
<path d="M343.412 434.793C349.4 438.175 359.109 438.175 365.097 434.793C371.085 431.412 371.085 425.93 365.097 422.548C359.109 419.167 349.4 419.167 343.412 422.548C337.424 425.929 337.424 431.412 343.412 434.793Z" fill="#EBEBEB"/>
<path d="M365.097 424.132C359.109 420.751 349.4 420.751 343.412 424.132C340.775 425.622 339.303 427.518 338.987 429.463C339.302 431.408 340.775 433.304 343.412 434.793C349.4 438.175 359.109 438.175 365.097 434.793C367.733 433.304 369.206 431.408 369.521 429.463C369.207 427.518 367.733 425.622 365.097 424.132Z" fill="#F5F5F5"/>
<path d="M337.924 455.768C337.902 458.198 339.496 460.631 342.707 462.485C349.085 466.166 359.424 466.166 365.802 462.485C368.991 460.644 370.586 458.231 370.586 455.817V433.986C370.586 436.399 368.991 438.812 365.802 440.653C359.424 444.335 349.085 444.335 342.707 440.653C339.496 438.799 337.902 436.365 337.924 433.937V455.768Z" fill="#4C49E3"/>
<path opacity="0.3" d="M337.924 455.768C337.902 458.198 339.496 460.631 342.707 462.485C349.085 466.166 359.424 466.166 365.802 462.485C368.991 460.644 370.586 458.231 370.586 455.817V433.986C370.586 436.399 368.991 438.812 365.802 440.653C359.424 444.335 349.085 444.335 342.707 440.653C339.496 438.799 337.902 436.365 337.924 433.937V455.768Z" fill="black"/>
<path d="M357.982 434.486L356.251 433.486C354.844 432.674 354.469 431.575 355.411 431.031C356.353 430.488 358.257 430.704 359.663 431.516L361.396 432.516C362.803 433.328 363.178 434.427 362.236 434.971C361.292 435.516 359.389 435.298 357.982 434.486Z" fill="#E0E0E0"/>
<path d="M356.169 432.544C356.683 432.841 357.516 432.841 358.029 432.544C358.543 432.248 358.543 431.767 358.029 431.47C357.516 431.174 356.683 431.174 356.169 431.47C355.656 431.767 355.656 432.248 356.169 432.544Z" fill="#F5F5F5"/>
<path d="M359.603 434.401C360.117 434.697 360.951 434.697 361.463 434.401C361.977 434.104 361.977 433.623 361.463 433.327C360.949 433.03 360.117 433.03 359.603 433.327C359.089 433.623 359.089 434.103 359.603 434.401Z" fill="#F5F5F5"/>
<path opacity="0.1" d="M360.946 470.181C354.94 471.729 347.639 471.102 342.714 468.246C339.391 466.337 337.817 463.801 337.95 461.279H337.924V428.673C337.924 431.089 339.526 433.505 342.715 435.347C343.223 435.641 345.388 436.964 349.396 437.677V465.249C349.395 467.973 353.392 471.222 360.946 470.181Z" fill="black"/>
<path d="M316.373 483.828C323.926 488.189 336.173 488.189 343.726 483.828C351.279 479.467 351.279 472.397 343.726 468.035C336.173 463.674 323.926 463.674 316.373 468.035C308.82 472.397 308.82 479.467 316.373 483.828Z" fill="#37474F"/>
<path d="M346.356 475.255H346.381V442.646H313.72V475.255H313.745C313.607 477.767 315.183 480.305 318.503 482.221C324.881 485.904 335.221 485.904 341.598 482.221C344.919 480.304 346.493 477.767 346.356 475.255Z" fill="#EBEBEB"/>
<path d="M318.502 449.312C324.88 452.995 335.22 452.995 341.597 449.312C347.975 445.631 347.975 439.661 341.597 435.978C335.219 432.295 324.88 432.295 318.502 435.978C312.125 439.661 312.125 445.631 318.502 449.312Z" fill="#FAFAFA"/>
<path d="M319.207 448.767C325.195 452.149 334.904 452.149 340.892 448.767C346.88 445.386 346.88 439.903 340.892 436.523C334.904 433.141 325.195 433.141 319.207 436.523C313.219 439.904 313.219 445.386 319.207 448.767Z" fill="#EBEBEB"/>
<path d="M340.893 438.107C334.905 434.725 325.196 434.725 319.208 438.107C316.571 439.596 315.099 441.492 314.783 443.437C315.098 445.382 316.571 447.278 319.208 448.767C325.196 452.149 334.905 452.149 340.893 448.767C343.529 447.279 345.002 445.382 345.317 443.437C345.002 441.493 343.529 439.596 340.893 438.107Z" fill="#F5F5F5"/>
<path d="M313.72 469.742C313.698 472.171 315.292 474.605 318.503 476.459C324.881 480.14 335.222 480.14 341.598 476.459C344.787 474.618 346.382 472.205 346.382 469.791V447.96C346.382 450.373 344.787 452.785 341.598 454.627C335.222 458.309 324.881 458.309 318.503 454.627C315.292 452.773 313.698 450.339 313.72 447.911V469.742Z" fill="#4C49E3"/>
<path opacity="0.3" d="M313.72 469.742C313.698 472.171 315.292 474.605 318.503 476.459C324.881 480.14 335.222 480.14 341.598 476.459C344.787 474.618 346.382 472.205 346.382 469.791V447.96C346.382 450.373 344.787 452.785 341.598 454.627C335.222 458.309 324.881 458.309 318.503 454.627C315.292 452.773 313.698 450.339 313.72 447.911V469.742Z" fill="black"/>
<path opacity="0.1" d="M336.738 484.151C330.732 485.699 323.432 485.071 318.507 482.215C315.184 480.306 313.608 477.77 313.743 475.248H313.716V442.644C313.716 445.06 315.318 447.475 318.508 449.317C319.016 449.611 321.18 450.935 325.188 451.648V479.22C325.187 481.944 329.184 485.191 336.738 484.151Z" fill="black"/>
<path d="M333.776 448.461L332.044 447.461C330.637 446.65 330.262 445.551 331.204 445.006C332.146 444.462 334.05 444.678 335.456 445.491L337.188 446.49C338.594 447.303 338.97 448.401 338.028 448.945C337.087 449.49 335.183 449.273 333.776 448.461Z" fill="#E0E0E0"/>
<path d="M331.964 446.52C332.478 446.816 333.311 446.816 333.824 446.52C334.338 446.224 334.338 445.742 333.824 445.446C333.311 445.15 332.478 445.15 331.964 445.446C331.451 445.742 331.451 446.222 331.964 446.52Z" fill="#F5F5F5"/>
<path d="M335.399 448.375C335.912 448.672 336.746 448.672 337.26 448.375C337.774 448.079 337.774 447.598 337.26 447.301C336.746 447.005 335.914 447.005 335.399 447.301C334.885 447.598 334.885 448.079 335.399 448.375Z" fill="#F5F5F5"/>
<path d="M412.983 455.774C420.536 460.134 432.783 460.134 440.336 455.774C447.89 451.413 447.89 444.342 440.336 439.982C432.783 435.621 420.536 435.621 412.983 439.982C405.429 444.342 405.429 451.413 412.983 455.774Z" fill="#37474F"/>
<path d="M442.965 447.201H442.99V414.592H410.328V447.201H410.353C410.215 449.712 411.791 452.25 415.111 454.167C421.489 457.849 431.83 457.849 438.207 454.167C441.527 452.249 443.103 449.712 442.965 447.201Z" fill="#EBEBEB"/>
<path d="M415.112 421.258C421.49 424.941 431.83 424.941 438.207 421.258C444.585 417.576 444.585 411.606 438.207 407.923C431.829 404.242 421.488 404.242 415.112 407.923C408.734 411.606 408.734 417.576 415.112 421.258Z" fill="#FAFAFA"/>
<path d="M415.816 420.713C421.804 424.095 431.513 424.095 437.501 420.713C443.489 417.332 443.489 411.85 437.501 408.468C431.513 405.087 421.804 405.087 415.816 408.468C409.828 411.85 409.828 417.333 415.816 420.713Z" fill="#EBEBEB"/>
<path d="M437.502 410.053C431.514 406.672 421.805 406.672 415.817 410.053C413.181 411.542 411.708 413.439 411.393 415.384C411.707 417.329 413.181 419.225 415.817 420.714C421.805 424.096 431.514 424.096 437.502 420.714C440.139 419.225 441.611 417.329 441.927 415.384C441.611 413.439 440.139 411.541 437.502 410.053Z" fill="#F5F5F5"/>
<path d="M410.328 441.688C410.307 444.116 411.9 446.55 415.112 448.404C421.49 452.086 431.83 452.086 438.207 448.404C441.395 446.563 442.99 444.15 442.99 441.737V419.905C442.99 422.318 441.395 424.732 438.207 426.572C431.829 430.254 421.49 430.254 415.112 426.572C411.9 424.718 410.307 422.285 410.328 419.856V441.688Z" fill="#4C49E3"/>
<path opacity="0.3" d="M410.328 441.688C410.307 444.116 411.9 446.55 415.112 448.404C421.49 452.086 431.83 452.086 438.207 448.404C441.395 446.563 442.99 444.15 442.99 441.737V419.905C442.99 422.318 441.395 424.732 438.207 426.572C431.829 430.254 421.49 430.254 415.112 426.572C411.9 424.718 410.307 422.285 410.328 419.856V441.688Z" fill="black"/>
<path opacity="0.1" d="M433.347 456.096C427.341 457.644 420.04 457.016 415.117 454.16C411.794 452.251 410.218 449.716 410.353 447.193H410.326V414.588C410.326 417.003 411.928 419.419 415.118 421.261C415.625 421.555 417.79 422.879 421.798 423.592V451.164C421.797 453.889 425.794 457.137 433.347 456.096Z" fill="black"/>
<path d="M430.387 420.407L428.654 419.407C427.248 418.595 426.872 417.496 427.814 416.952C428.757 416.409 430.66 416.626 432.067 417.437L433.798 418.437C435.205 419.249 435.58 420.348 434.638 420.892C433.698 421.435 431.793 421.218 430.387 420.407Z" fill="#E0E0E0"/>
<path d="M428.575 418.465C429.088 418.762 429.921 418.762 430.435 418.465C430.948 418.169 430.948 417.688 430.435 417.391C429.921 417.095 429.088 417.095 428.575 417.391C428.061 417.688 428.061 418.169 428.575 418.465Z" fill="#F5F5F5"/>
<path d="M432.008 420.321C432.522 420.617 433.356 420.617 433.869 420.321C434.383 420.024 434.383 419.543 433.869 419.247C433.356 418.95 432.523 418.95 432.008 419.247C431.495 419.543 431.495 420.024 432.008 420.321Z" fill="#F5F5F5"/>
<path d="M388.779 469.749C396.332 474.109 408.579 474.109 416.132 469.749C423.684 465.388 423.684 458.317 416.132 453.957C408.579 449.596 396.332 449.596 388.779 453.957C381.225 458.317 381.225 465.388 388.779 469.749Z" fill="#37474F"/>
<path d="M418.761 461.174H418.787V428.565H386.125V461.174H386.15C386.012 463.686 387.588 466.224 390.908 468.14C397.286 471.823 407.627 471.823 414.003 468.14C417.324 466.224 418.899 463.686 418.761 461.174Z" fill="#EBEBEB"/>
<path d="M390.909 435.233C397.286 438.914 407.627 438.914 414.004 435.233C420.382 431.55 420.382 425.581 414.004 421.898C407.626 418.217 397.286 418.217 390.909 421.898C384.53 425.58 384.53 431.55 390.909 435.233Z" fill="#FAFAFA"/>
<path d="M391.612 434.688C397.6 438.07 407.309 438.07 413.297 434.688C419.285 431.307 419.285 425.824 413.297 422.443C407.309 419.062 397.6 419.062 391.612 422.443C385.624 425.824 385.624 431.307 391.612 434.688Z" fill="#EBEBEB"/>
<path d="M413.297 424.027C407.309 420.646 397.6 420.646 391.612 424.027C388.975 425.517 387.503 427.413 387.188 429.358C387.502 431.303 388.975 433.199 391.612 434.688C397.6 438.07 407.309 438.07 413.297 434.688C415.933 433.199 417.406 431.303 417.722 429.358C417.407 427.413 415.935 425.515 413.297 424.027Z" fill="#F5F5F5"/>
<path d="M386.124 455.663C386.103 458.091 387.696 460.525 390.907 462.379C397.285 466.061 407.626 466.061 414.003 462.379C417.191 460.538 418.786 458.125 418.786 455.712V433.88C418.786 436.293 417.191 438.705 414.003 440.547C407.625 444.229 397.285 444.229 390.907 440.547C387.696 438.693 386.103 436.26 386.124 433.831V455.663Z" fill="#4C49E3"/>
<path opacity="0.3" d="M386.124 455.663C386.103 458.091 387.696 460.525 390.907 462.379C397.285 466.061 407.626 466.061 414.003 462.379C417.191 460.538 418.786 458.125 418.786 455.712V433.88C418.786 436.293 417.191 438.705 414.003 440.547C407.625 444.229 397.285 444.229 390.907 440.547C387.696 438.693 386.103 436.26 386.124 433.831V455.663Z" fill="black"/>
<path opacity="0.1" d="M409.143 470.07C403.137 471.618 395.836 470.99 390.911 468.134C387.589 466.226 386.013 463.69 386.147 461.167H386.121V428.562C386.121 430.978 387.723 433.393 390.913 435.235C391.42 435.529 393.585 436.853 397.593 437.566V465.138C397.593 467.863 401.589 471.112 409.143 470.07Z" fill="black"/>
<path d="M406.182 434.381L404.451 433.381C403.044 432.569 402.669 431.47 403.611 430.926C404.553 430.383 406.457 430.599 407.864 431.411L409.596 432.411C411.003 433.223 411.378 434.322 410.436 434.866C409.492 435.409 407.589 435.192 406.182 434.381Z" fill="#E0E0E0"/>
<path d="M404.37 432.439C404.884 432.736 405.717 432.736 406.23 432.439C406.744 432.143 406.744 431.662 406.23 431.365C405.717 431.069 404.884 431.069 404.37 431.365C403.856 431.662 403.856 432.143 404.37 432.439Z" fill="#F5F5F5"/>
<path d="M407.803 434.296C408.317 434.592 409.151 434.592 409.664 434.296C410.178 433.999 410.178 433.518 409.664 433.222C409.151 432.925 408.318 432.925 407.803 433.222C407.29 433.517 407.29 433.998 407.803 434.296Z" fill="#F5F5F5"/>
<path d="M364.574 483.723C372.127 488.084 384.374 488.084 391.927 483.723C399.479 479.362 399.479 472.292 391.927 467.931C384.374 463.57 372.127 463.57 364.574 467.931C357.021 472.292 357.021 479.362 364.574 483.723Z" fill="#37474F"/>
<path d="M394.556 475.148H394.582V442.54H361.92V475.148H361.945C361.807 477.66 363.383 480.198 366.704 482.114C373.082 485.797 383.422 485.797 389.8 482.114C393.119 480.198 394.694 477.661 394.556 475.148Z" fill="#EBEBEB"/>
<path d="M366.703 449.207C373.081 452.89 383.421 452.89 389.799 449.207C396.177 445.525 396.177 439.555 389.799 435.873C383.421 432.191 373.08 432.191 366.703 435.873C360.325 439.555 360.325 445.524 366.703 449.207Z" fill="#FAFAFA"/>
<path d="M367.408 448.662C373.396 452.044 383.105 452.044 389.093 448.662C395.081 445.281 395.081 439.799 389.093 436.418C383.105 433.036 373.396 433.036 367.408 436.418C361.42 439.799 361.42 445.281 367.408 448.662Z" fill="#EBEBEB"/>
<path d="M389.093 438.002C383.105 434.62 373.396 434.62 367.408 438.002C364.771 439.491 363.299 441.387 362.983 443.332C363.298 445.277 364.771 447.173 367.408 448.662C373.396 452.044 383.105 452.044 389.093 448.662C391.731 447.174 393.202 445.277 393.517 443.332C393.202 441.387 391.729 439.491 389.093 438.002Z" fill="#F5F5F5"/>
<path d="M361.92 469.637C361.899 472.067 363.492 474.499 366.703 476.353C373.081 480.035 383.421 480.035 389.799 476.353C392.987 474.512 394.582 472.099 394.582 469.686V447.854C394.582 450.268 392.987 452.68 389.799 454.522C383.421 458.203 373.081 458.203 366.703 454.522C363.492 452.668 361.899 450.234 361.92 447.805V469.637Z" fill="#4C49E3"/>
<path opacity="0.3" d="M361.92 469.637C361.899 472.067 363.492 474.499 366.703 476.353C373.081 480.035 383.421 480.035 389.799 476.353C392.987 474.512 394.582 472.099 394.582 469.686V447.854C394.582 450.268 392.987 452.68 389.799 454.522C383.421 458.203 373.081 458.203 366.703 454.522C363.492 452.668 361.899 450.234 361.92 447.805V469.637Z" fill="black"/>
<path d="M381.979 448.355L380.246 447.355C378.839 446.544 378.464 445.444 379.406 444.9C380.348 444.356 382.252 444.574 383.659 445.385L385.391 446.384C386.798 447.197 387.173 448.296 386.231 448.84C385.288 449.384 383.385 449.167 381.979 448.355Z" fill="#E0E0E0"/>
<path d="M380.165 446.414C380.679 446.711 381.512 446.711 382.025 446.414C382.539 446.118 382.539 445.637 382.025 445.34C381.512 445.044 380.679 445.044 380.165 445.34C379.652 445.637 379.652 446.117 380.165 446.414Z" fill="#F5F5F5"/>
<path d="M383.6 448.269C384.114 448.566 384.948 448.566 385.461 448.269C385.975 447.973 385.975 447.492 385.461 447.195C384.948 446.899 384.115 446.899 383.6 447.195C383.086 447.492 383.086 447.972 383.6 448.269Z" fill="#F5F5F5"/>
<path opacity="0.1" d="M384.942 484.05C378.936 485.598 371.635 484.97 366.71 482.114C363.388 480.205 361.812 477.67 361.946 475.147H361.92V442.542C361.92 444.958 363.522 447.373 366.711 449.215C367.219 449.509 369.384 450.833 373.392 451.546V479.118C373.391 481.842 377.388 485.09 384.942 484.05Z" fill="black"/>
<path d="M340.37 497.696C347.922 502.057 360.17 502.057 367.722 497.696C375.275 493.336 375.275 486.265 367.722 481.904C360.17 477.544 347.922 477.544 340.37 481.904C332.817 486.265 332.817 493.336 340.37 497.696Z" fill="#37474F"/>
<path d="M370.353 489.124H370.378V456.515H337.717V489.124H337.742C337.604 491.636 339.18 494.174 342.5 496.09C348.878 499.773 359.218 499.773 365.595 496.09C368.916 494.172 370.49 491.636 370.353 489.124Z" fill="#EBEBEB"/>
<path d="M342.498 463.181C348.876 466.863 359.217 466.863 365.594 463.181C371.972 459.499 371.97 453.529 365.594 449.847C359.216 446.164 348.876 446.164 342.498 449.847C336.122 453.529 336.122 459.499 342.498 463.181Z" fill="#FAFAFA"/>
<path d="M343.204 462.636C349.192 466.018 358.901 466.018 364.889 462.636C370.877 459.254 370.877 453.773 364.889 450.391C358.901 447.01 349.192 447.01 343.204 450.391C337.216 453.773 337.216 459.256 343.204 462.636Z" fill="#EBEBEB"/>
<path d="M364.89 451.977C358.902 448.595 349.192 448.595 343.204 451.977C340.568 453.466 339.096 455.362 338.781 457.307C339.096 459.252 340.569 461.148 343.206 462.637C349.194 466.019 358.903 466.019 364.891 462.637C367.527 461.148 369 459.252 369.315 457.307C368.998 455.362 367.526 453.465 364.89 451.977Z" fill="#F5F5F5"/>
<path d="M337.716 483.611C337.694 486.04 339.288 488.473 342.499 490.327C348.877 494.01 359.218 494.01 365.594 490.327C368.783 488.486 370.378 486.073 370.378 483.66V461.828C370.378 464.242 368.783 466.655 365.594 468.496C359.216 472.177 348.877 472.177 342.499 468.496C339.288 466.642 337.694 464.208 337.716 461.779V483.611Z" fill="#4C49E3"/>
<path opacity="0.3" d="M337.716 483.611C337.694 486.04 339.288 488.473 342.499 490.327C348.877 494.01 359.218 494.01 365.594 490.327C368.783 488.486 370.378 486.073 370.378 483.66V461.828C370.378 464.242 368.783 466.655 365.594 468.496C359.216 472.177 348.877 472.177 342.499 468.496C339.288 466.642 337.694 464.208 337.716 461.779V483.611Z" fill="black"/>
<path opacity="0.1" d="M360.735 498.019C354.729 499.567 347.428 498.94 342.503 496.084C339.18 494.176 337.605 491.639 337.739 489.116H337.713V456.511C337.713 458.927 339.315 461.342 342.505 463.184C343.012 463.478 345.177 464.802 349.185 465.515V493.087C349.184 495.812 353.181 499.061 360.735 498.019Z" fill="black"/>
<path d="M357.774 462.33L356.042 461.331C354.635 460.518 354.26 459.419 355.202 458.876C356.144 458.332 358.048 458.549 359.454 459.36L361.187 460.36C362.594 461.172 362.969 462.272 362.027 462.815C361.084 463.359 359.18 463.142 357.774 462.33Z" fill="#E0E0E0"/>
<path d="M355.961 460.389C356.475 460.685 357.308 460.685 357.821 460.389C358.335 460.092 358.335 459.611 357.821 459.315C357.308 459.018 356.475 459.018 355.961 459.315C355.448 459.611 355.448 460.092 355.961 460.389Z" fill="#F5F5F5"/>
<path d="M359.396 462.244C359.91 462.54 360.744 462.54 361.257 462.244C361.771 461.948 361.771 461.466 361.257 461.17C360.744 460.874 359.911 460.874 359.396 461.17C358.882 461.466 358.882 461.948 359.396 462.244Z" fill="#F5F5F5"/>
<path d="M42.2773 484.035L124.585 436.515L228.071 496.263L145.763 543.783L42.2773 484.035Z" fill="black"/>
<path d="M124.584 436.514V355.25L40.6079 403.735L110.867 444.436L124.584 436.514Z" fill="#37474F"/>
<path d="M124.584 355.25V436.514L159.481 456.661L229.738 415.961L124.584 355.25Z" fill="#263238"/>
<path d="M40.6079 403.735V483.072L145.759 543.783L145.76 464.581L40.6079 403.735Z" fill="#263238"/>
<path d="M145.76 464.581L145.759 543.783L229.736 495.299L229.738 415.961L145.76 464.581Z" fill="#37474F"/>
<path d="M145.762 464.582L147.419 540.755L208.408 507.614L145.759 543.783L145.762 464.582Z" fill="#455A64"/>
<path d="M155.802 518.305C155.494 518.305 155.204 518.23 154.94 518.077C154.258 517.683 153.865 516.814 153.865 515.697V508.68C153.865 508.675 153.865 508.671 153.865 508.666V508.146L154.224 508.211L159.726 504.979V512.82C159.726 514.815 158.536 517.065 157.016 517.943C156.601 518.183 156.188 518.305 155.802 518.305ZM154.747 509.2V515.697C154.747 516.49 154.98 517.08 155.382 517.312C155.782 517.542 156.251 517.365 156.575 517.181C157.805 516.468 158.843 514.474 158.843 512.821V512.247H156.806L156.404 509.496L154.747 509.2ZM157.568 511.365H158.842V506.52L155.56 508.449L157.184 508.738L157.568 511.365Z" fill="#E0E0E0"/>
<path d="M156.794 523.899C156.551 523.899 156.353 523.701 156.353 523.457V517.563C156.353 517.319 156.551 517.121 156.794 517.121C157.038 517.121 157.236 517.319 157.236 517.563V523.457C157.236 523.702 157.038 523.899 156.794 523.899Z" fill="#E0E0E0"/>
<path d="M154.232 525.377C154.081 525.377 153.931 525.299 153.851 525.156C153.728 524.945 153.8 524.675 154.011 524.554L159.137 521.596C159.344 521.47 159.618 521.541 159.739 521.757C159.861 521.968 159.789 522.238 159.578 522.359L154.453 525.317C154.383 525.358 154.308 525.377 154.232 525.377Z" fill="#E0E0E0"/>
<path d="M172.488 515.226C172.315 515.226 172.152 515.185 172.006 515.101C171.67 514.908 171.478 514.522 171.478 514.039V512.831C171.478 512.587 171.676 512.389 171.919 512.389C172.163 512.389 172.361 512.587 172.361 512.831V514.039C172.361 514.221 172.411 514.315 172.446 514.336C172.481 514.354 172.584 514.348 172.734 514.26C173.123 514.03 173.555 513.155 173.555 512.266V504.427C173.555 504.184 173.753 503.986 173.996 503.986C174.24 503.986 174.438 504.184 174.438 504.427V512.266C174.438 513.414 173.9 514.599 173.185 515.019C172.948 515.157 172.711 515.226 172.488 515.226Z" fill="#E0E0E0"/>
<path d="M167.841 508.373V507.608C167.841 504.014 170.372 499.628 173.484 497.831C175.076 496.914 176.598 496.779 177.761 497.452C178.928 498.125 179.569 499.508 179.569 501.344V501.599L167.841 508.373ZM176.126 497.913C175.46 497.913 174.71 498.143 173.924 498.597C171.282 500.121 169.091 503.675 168.765 506.819L178.682 501.093C178.632 499.713 178.152 498.696 177.319 498.216C176.967 498.012 176.565 497.913 176.126 497.913Z" fill="#E0E0E0"/>
<path d="M188.331 506.192C188.088 506.192 187.89 505.995 187.89 505.75V490.737C187.89 490.493 188.088 490.295 188.331 490.295C188.575 490.295 188.773 490.493 188.773 490.737V505.75C188.773 505.995 188.575 506.192 188.331 506.192Z" fill="#E0E0E0"/>
<path d="M187.042 494.162C186.982 494.162 186.925 494.151 186.867 494.126C186.642 494.028 186.541 493.769 186.638 493.545L188.208 489.918L189.958 491.94C190.119 492.124 190.099 492.402 189.915 492.562C189.727 492.72 189.451 492.701 189.292 492.518L188.461 491.558L187.447 493.896C187.376 494.061 187.213 494.162 187.042 494.162Z" fill="#E0E0E0"/>
<path d="M192.412 503.866C192.168 503.866 191.972 503.668 191.972 503.424V488.41C191.972 488.166 192.168 487.968 192.412 487.968C192.656 487.968 192.854 488.165 192.854 488.41V503.424C192.854 503.669 192.657 503.866 192.412 503.866Z" fill="#E0E0E0"/>
<path d="M191.121 491.835C191.061 491.835 191.003 491.824 190.946 491.798C190.72 491.702 190.619 491.441 190.717 491.217L192.286 487.59L194.037 489.612C194.198 489.796 194.177 490.074 193.994 490.234C193.805 490.391 193.529 490.374 193.371 490.19L192.539 489.228L191.525 491.568C191.455 491.734 191.291 491.835 191.121 491.835Z" fill="#E0E0E0"/>
<path d="M58.5996 460.055L81.5208 473.296C82.0896 473.625 82.5552 474.431 82.5552 475.087L82.5564 491.021C82.5564 492.333 81.6276 492.869 80.4912 492.214L57.5664 478.973C56.9976 478.644 56.5332 477.839 56.5332 477.183L56.5344 461.248C56.5344 459.936 57.4632 459.399 58.5996 460.055Z" fill="#FAFAFA"/>
<path d="M58.0298 462.534L58.8098 462.984L58.8086 477.049L58.0298 476.598V462.534Z" fill="#455A64"/>
<path d="M61.2036 464.367L62.5488 465.158L62.5476 479.222L61.2036 478.431V464.367Z" fill="#455A64"/>
<path d="M64.3789 466.199L65.1589 466.649V480.713L64.3789 480.263V466.199Z" fill="#455A64"/>
<path d="M66.7729 467.555L68.3341 468.482L68.3329 482.546L66.7729 481.62V467.555Z" fill="#455A64"/>
<path d="M70.728 469.863L71.508 470.313V484.378L70.728 483.928V469.863Z" fill="#455A64"/>
<path d="M73.0142 471.154L74.6834 472.145V486.209L73.0142 485.218V471.154Z" fill="#455A64"/>
<path d="M77.0783 473.527L77.8583 473.977L77.8571 488.041L77.0771 487.591L77.0783 473.527Z" fill="#455A64"/>
<path d="M78.8892 474.558L79.2792 474.783L79.278 488.848L78.8892 488.622V474.558Z" fill="#455A64"/>
<path d="M75.6313 472.761L76.0213 472.986L76.0201 487.05L75.6313 486.826V472.761Z" fill="#455A64"/>
<path d="M69.2354 469.016L69.6254 469.241V483.305L69.2354 483.08V469.016Z" fill="#455A64"/>
<path d="M65.7339 467.005L66.1239 467.231L66.1227 481.295L65.7339 481.069V467.005Z" fill="#455A64"/>
<path d="M63.2173 465.616L63.6073 465.841V479.905L63.2173 479.681V465.616Z" fill="#455A64"/>
<path d="M59.8071 463.546L60.1971 463.77L60.1959 477.836L59.8071 477.61V463.546Z" fill="#455A64"/>
<path d="M80.2536 475.36L81.0324 475.81V489.874L80.2524 489.424L80.2536 475.36Z" fill="#455A64"/>
<path d="M124.584 355.25L40.6079 403.735L145.762 464.581L229.738 415.961L124.584 355.25Z" fill="#455A64"/>
<path opacity="0.1" d="M40.6079 403.735L145.762 461.574L229.738 415.961L145.762 464.581L40.6079 403.735Z" fill="white"/>
<path d="M75.4512 383.612L180.673 444.362L193.604 436.88L88.3956 376.139L75.4512 383.612Z" fill="#4C49E3"/>
<path d="M193.605 436.875V453.318L192.044 452.425L190.418 455.23L188.793 454.275L187.169 457.11L185.543 456.154L183.918 458.958L182.293 458.034L180.667 460.839V444.364L193.605 436.875Z" fill="#4C49E3"/>
<path opacity="0.25" d="M193.605 436.875V453.318L192.044 452.425L190.418 455.23L188.793 454.275L187.169 457.11L185.543 456.154L183.918 458.958L182.293 458.034L180.667 460.839V444.364L193.605 436.875Z" fill="black"/>
<path opacity="0.1" d="M120.511 360.511L47.2773 402.792L139.425 456.175L212.658 413.758L120.511 360.511Z" fill="black"/>
<path d="M61.2104 404.867L122.421 369.433L200.24 414.388L139.029 449.726L61.2104 404.867Z" fill="black"/>
<path d="M122.42 361.908V292.073L59.7754 328.241L120.427 363.296L122.42 361.908Z" fill="#37474F"/>
<path d="M122.42 292.073V361.908L141.216 372.784L201.674 337.76L122.42 292.073Z" fill="#263238"/>
<path d="M59.7754 328.241V404.039L139.027 449.726V374.046L59.7754 328.241Z" fill="#263238"/>
<path d="M139.027 374.046V449.726L201.673 413.558L201.674 337.76L139.027 374.046Z" fill="#37474F"/>
<path d="M139.028 374.046L140.454 447.121L192.937 418.602L139.027 449.726L139.028 374.046Z" fill="#455A64"/>
<path d="M147.668 427.802C147.403 427.802 147.155 427.736 146.927 427.607C146.339 427.267 146.001 426.52 146.001 425.558V419.52C146.001 419.516 146.001 419.512 146.001 419.508V419.062L146.31 419.117L151.045 416.336V423.084C151.045 424.801 150.02 426.737 148.713 427.492C148.357 427.698 148.001 427.802 147.668 427.802ZM146.76 419.968V425.558C146.76 426.241 146.96 426.749 147.306 426.949C147.65 427.147 148.053 426.995 148.332 426.836C149.39 426.223 150.284 424.507 150.284 423.085V422.591H148.532L148.187 420.223L146.76 419.968ZM149.189 421.83H150.284V417.661L147.459 419.321L148.857 419.569L149.189 421.83Z" fill="#E0E0E0"/>
<path d="M148.523 432.615C148.313 432.615 148.144 432.445 148.144 432.236V427.164C148.144 426.954 148.314 426.785 148.523 426.785C148.733 426.785 148.902 426.955 148.902 427.164V432.236C148.902 432.446 148.733 432.615 148.523 432.615Z" fill="#E0E0E0"/>
<path d="M146.318 433.887C146.187 433.887 146.059 433.82 145.989 433.698C145.884 433.516 145.946 433.285 146.127 433.18L150.537 430.634C150.716 430.526 150.951 430.587 151.056 430.773C151.161 430.956 151.099 431.188 150.918 431.292L146.508 433.837C146.448 433.872 146.383 433.887 146.318 433.887Z" fill="#E0E0E0"/>
<path d="M162.027 425.153C161.878 425.153 161.738 425.117 161.612 425.046C161.324 424.88 161.157 424.548 161.157 424.133V423.092C161.157 422.884 161.328 422.713 161.536 422.713C161.746 422.713 161.917 422.884 161.917 423.092V424.133C161.917 424.289 161.96 424.37 161.99 424.388C162.02 424.404 162.109 424.398 162.237 424.324C162.571 424.126 162.943 423.372 162.943 422.606V415.861C162.943 415.651 163.113 415.482 163.322 415.482C163.532 415.482 163.702 415.652 163.702 415.861V422.606C163.702 423.595 163.239 424.614 162.625 424.975C162.423 425.093 162.219 425.153 162.027 425.153Z" fill="#E0E0E0"/>
<path d="M158.029 419.255V418.596C158.029 415.502 160.206 411.728 162.884 410.183C164.254 409.393 165.564 409.277 166.564 409.856C167.569 410.436 168.121 411.625 168.121 413.206V413.425L158.029 419.255ZM165.158 410.254C164.584 410.254 163.94 410.452 163.263 410.842C160.989 412.153 159.104 415.212 158.823 417.918L167.356 412.99C167.313 411.802 166.899 410.928 166.184 410.514C165.883 410.34 165.536 410.254 165.158 410.254Z" fill="#E0E0E0"/>
<path d="M175.662 417.378C175.452 417.378 175.283 417.208 175.283 416.999V404.079C175.283 403.869 175.453 403.698 175.662 403.698C175.872 403.698 176.041 403.869 176.041 404.079V416.999C176.041 417.208 175.872 417.378 175.662 417.378Z" fill="#E0E0E0"/>
<path d="M174.552 407.026C174.5 407.026 174.451 407.016 174.402 406.994C174.207 406.912 174.121 406.688 174.204 406.495L175.555 403.374L177.062 405.114C177.2 405.272 177.183 405.511 177.025 405.649C176.863 405.786 176.625 405.769 176.489 405.611L175.772 404.784L174.9 406.798C174.839 406.939 174.698 407.026 174.552 407.026Z" fill="#E0E0E0"/>
<path d="M179.174 415.376C178.964 415.376 178.795 415.206 178.795 414.997V402.076C178.795 401.866 178.965 401.697 179.174 401.697C179.384 401.697 179.553 401.866 179.553 402.076V414.997C179.553 415.207 179.383 415.376 179.174 415.376Z" fill="#E0E0E0"/>
<path d="M178.063 405.023C178.011 405.023 177.962 405.013 177.913 404.991C177.719 404.909 177.632 404.684 177.715 404.492L179.066 401.371L180.573 403.111C180.711 403.269 180.695 403.508 180.536 403.646C180.374 403.782 180.137 403.767 180 403.608L179.283 402.781L178.411 404.795C178.35 404.937 178.209 405.023 178.063 405.023Z" fill="#E0E0E0"/>
<path d="M122.42 292.073L59.7754 328.241L139.028 374.046L201.674 337.76L122.42 292.073Z" fill="#455A64"/>
<path opacity="0.1" d="M59.7754 328.241L138.731 371.346L201.674 337.76L139.028 374.046L59.7754 328.241Z" fill="white"/>
<path d="M87.6177 312.167L166.929 357.888L178.056 351.45L98.7573 305.735L87.6177 312.167Z" fill="#4C49E3"/>
<path d="M178.058 351.444V365.594L176.714 364.826L175.316 367.239L173.917 366.416L172.519 368.857L171.12 368.034L169.722 370.447L168.323 369.653L166.925 372.066V357.888L178.058 351.444Z" fill="#4C49E3"/>
<path opacity="0.25" d="M178.058 351.444V365.594L176.714 364.826L175.316 367.239L173.917 366.416L172.519 368.857L171.12 368.034L169.722 370.447L168.323 369.653L166.925 372.066V357.888L178.058 351.444Z" fill="black"/>
<path d="M72.6128 385.618L95.534 398.858C96.1028 399.187 96.5684 399.994 96.5684 400.65L96.5696 416.584C96.5696 417.895 95.6408 418.432 94.5044 417.776L71.5796 404.536C71.0108 404.207 70.5464 403.402 70.5464 402.745L70.5476 386.811C70.5476 385.498 71.4776 384.961 72.6128 385.618Z" fill="#FAFAFA"/>
<path d="M72.043 388.097L72.823 388.547V402.611L72.043 402.161V388.097Z" fill="#455A64"/>
<path d="M75.2168 389.928L76.562 390.719L76.5608 404.784L75.2168 403.993V389.928Z" fill="#455A64"/>
<path d="M78.3921 391.76L79.1721 392.211V406.275L78.3921 405.825V391.76Z" fill="#455A64"/>
<path d="M80.7861 393.118L82.3473 394.043V408.108L80.7861 407.182V393.118Z" fill="#455A64"/>
<path d="M84.7412 395.425L85.5224 395.875L85.5212 409.939L84.7412 409.489V395.425Z" fill="#455A64"/>
<path d="M87.0273 396.715L88.6965 397.707V411.771L87.0273 410.78V396.715Z" fill="#455A64"/>
<path d="M91.0918 399.089L91.8718 399.54V413.604L91.0918 413.153V399.089Z" fill="#455A64"/>
<path d="M92.9023 400.12L93.2923 400.345V414.409L92.9023 414.185V400.12Z" fill="#455A64"/>
<path d="M89.6445 398.323L90.0345 398.549L90.0333 412.613L89.6445 412.387V398.323Z" fill="#455A64"/>
<path d="M83.2497 394.577L83.6385 394.802V408.866L83.2485 408.642L83.2497 394.577Z" fill="#455A64"/>
<path d="M79.7471 392.567L80.1371 392.792V406.856L79.7471 406.632V392.567Z" fill="#455A64"/>
<path d="M77.2305 391.178L77.6205 391.404V405.468L77.2305 405.242V391.178Z" fill="#455A64"/>
<path d="M73.8203 389.107L74.2103 389.333V403.397L73.8203 403.171V389.107Z" fill="#455A64"/>
<path d="M94.2668 400.921L95.0468 401.371L95.0456 415.436L94.2656 414.986L94.2668 400.921Z" fill="#455A64"/>
<path d="M236.598 191.766L52.3379 298.15V129.04L236.598 22.6572V191.766Z" fill="white"/>
<path d="M52.338 299.418C52.1184 299.418 51.9 299.362 51.7044 299.248C51.312 299.021 51.0708 298.603 51.0708 298.15V129.04C51.0708 128.587 51.312 128.167 51.7044 127.942L235.966 21.5593C236.357 21.3325 236.842 21.3325 237.234 21.5593C237.626 21.7849 237.868 22.2049 237.868 22.6573V191.766C237.868 192.22 237.626 192.638 237.234 192.864L52.9716 299.248C52.776 299.362 52.5564 299.418 52.338 299.418ZM53.6052 129.773V295.954L235.331 191.033V24.8533L53.6052 129.773Z" fill="#E0E0E0"/>
<path d="M152.596 88.5146L148.429 90.9194L148.428 190.121L152.592 187.716L152.596 88.5146ZM74.291 268.488L76.3718 267.289L76.3754 132.461L74.2922 133.663L74.291 268.488ZM84.7862 127.686L80.6222 130.089L80.621 229.288L84.7838 226.885L84.7862 127.686ZM108.101 232.295C107.515 231.844 106.83 231.642 106.038 231.696C105.246 231.756 104.401 232.044 103.501 232.564C102.493 233.146 101.705 233.787 101.141 234.484C100.572 235.183 100.201 235.683 100.021 235.979L100.585 226.27L108.33 221.799C108.726 221.569 108.924 221.151 108.924 220.54V219.876C108.924 219.267 108.726 219.076 108.33 219.304L99.5342 224.382C99.1766 224.589 98.9786 225.022 98.9402 225.681L98.1302 239.73C98.1134 239.992 98.1686 240.172 98.2934 240.286C98.4182 240.393 98.5646 240.394 98.7242 240.303L99.2114 240.022C99.5006 239.855 99.7538 239.575 99.983 239.185C100.207 238.791 100.465 238.356 100.763 237.88C101.061 237.403 101.422 236.916 101.844 236.406C102.267 235.897 102.817 235.446 103.503 235.051C104.17 234.666 104.795 234.457 105.376 234.427C105.961 234.394 106.47 234.545 106.901 234.88C107.337 235.205 107.676 235.726 107.926 236.423C108.18 237.125 108.305 238.014 108.305 239.095C108.305 240.256 108.18 241.362 107.926 242.405C107.676 243.451 107.335 244.403 106.901 245.265C106.47 246.124 105.961 246.881 105.376 247.537C104.794 248.191 104.17 248.711 103.503 249.096C103.015 249.377 102.538 249.561 102.06 249.658C101.583 249.755 101.142 249.717 100.738 249.552C100.333 249.382 99.9842 249.065 99.6866 248.601C99.389 248.135 99.1694 247.486 99.023 246.655C98.9498 246.28 98.855 246.07 98.7386 246.03C98.6222 245.985 98.4926 246.006 98.351 246.088L97.8386 246.384C97.6754 246.479 97.541 246.622 97.4342 246.823C97.3226 247.027 97.2794 247.245 97.2962 247.487C97.313 248.446 97.469 249.298 97.757 250.047C98.0414 250.798 98.4458 251.38 98.9714 251.793C99.4922 252.215 100.131 252.43 100.884 252.432C101.643 252.439 102.513 252.162 103.503 251.59C104.403 251.07 105.247 250.377 106.039 249.521C106.831 248.659 107.517 247.654 108.102 246.499C108.688 245.345 109.149 244.072 109.494 242.665C109.835 241.261 110.007 239.743 110.007 238.111C110.007 236.586 109.834 235.353 109.494 234.395C109.149 233.448 108.688 232.746 108.101 232.295ZM92.8706 230.889C92.3318 230.284 91.6598 229.93 90.8594 229.828C90.0626 229.717 89.1194 229.977 88.0418 230.599C86.9606 231.223 86.0222 232.051 85.2206 233.083C84.419 234.109 83.7566 235.235 83.2262 236.457C82.6922 237.681 82.2962 238.93 82.037 240.214C81.7742 241.506 81.6446 242.728 81.6446 243.888C81.6446 245.056 81.7742 246.129 82.037 247.11C82.295 248.101 82.6922 248.887 83.2262 249.481C83.7566 250.071 84.419 250.423 85.2206 250.531C86.0222 250.632 86.9606 250.375 88.0418 249.751C88.6706 249.388 89.2562 248.938 89.795 248.407L85.5302 260.094C85.4954 260.167 85.4654 260.257 85.4354 260.355C85.4102 260.455 85.397 260.569 85.397 260.709C85.397 260.961 85.4438 261.145 85.5434 261.268C85.643 261.39 85.7762 261.406 85.9358 261.313L86.4746 261.003C86.729 260.856 86.9102 260.645 87.017 260.377C87.125 260.11 87.2234 259.879 87.3146 259.689L92.8718 244.391C93.035 243.965 93.203 243.463 93.3842 242.889C93.5654 242.314 93.737 241.69 93.8966 241.014C94.0598 240.336 94.1942 239.622 94.301 238.871C94.409 238.119 94.4642 237.324 94.4642 236.489C94.4642 235.329 94.331 234.258 94.0718 233.267C93.809 232.283 93.4082 231.493 92.8706 230.889ZM92.3834 240.621C92.1338 241.641 91.793 242.573 91.3586 243.435C90.9278 244.294 90.4238 245.056 89.8514 245.717C89.2742 246.382 88.6718 246.895 88.0418 247.259C87.413 247.623 86.8142 247.801 86.2454 247.799C85.6814 247.793 85.181 247.611 84.7502 247.249C84.3158 246.891 83.975 246.351 83.7206 245.622C83.471 244.891 83.3462 243.988 83.3462 242.908C83.3462 241.827 83.471 240.773 83.7206 239.747C83.975 238.711 84.3146 237.766 84.7502 236.904C85.181 236.045 85.6802 235.287 86.2454 234.629C86.8142 233.969 87.413 233.458 88.0418 233.094C88.6706 232.731 89.2742 232.549 89.8514 232.547C90.4238 232.548 90.9278 232.728 91.3586 233.089C91.7942 233.448 92.1338 234.001 92.3834 234.745C92.6378 235.481 92.7626 236.391 92.7626 237.471C92.7626 238.551 92.6378 239.598 92.3834 240.621ZM108.323 213.755L110.405 212.554L110.407 113.355L108.325 114.555L108.323 213.755ZM69.5762 271.206L71.657 270.007L71.6606 135.179L69.5774 136.381L69.5762 271.206ZM118.691 108.101L114.525 110.507V209.704L118.687 207.301L118.691 108.101ZM123.841 105.259L121.758 106.462L121.757 205.661L123.838 204.46L123.841 105.259ZM92.195 123.327L90.1118 124.529V223.726L92.1926 222.527L92.195 123.327ZM104.753 116.229L97.5722 120.299V219.496L104.749 215.43L104.753 116.229ZM199.201 61.5206L197.119 62.7218L197.118 161.92L199.199 160.721L199.201 61.5206ZM193.45 170.153L183.03 176.169C182.638 176.395 182.44 176.827 182.44 177.465V178.089C182.44 178.698 182.638 178.889 183.03 178.663L192.235 173.349L185.301 202.653C185.262 202.841 185.244 202.977 185.244 203.056C185.244 203.308 185.296 203.49 185.395 203.613C185.495 203.735 185.623 203.753 185.783 203.661L186.352 203.333C186.55 203.219 186.696 203.015 186.796 202.726C186.895 202.429 186.981 202.155 187.054 201.887L193.881 173.023C193.949 172.705 194.002 172.429 194.027 172.21C194.057 171.987 194.07 171.707 194.07 171.376V170.752C194.07 170.113 193.863 169.915 193.45 170.153ZM174.606 210.114L176.687 208.915L176.689 74.9678L174.606 76.1714V210.114ZM192.005 164.872L194.086 163.673L194.088 64.4726L192.006 65.6738L192.005 164.872ZM186.501 68.9318L182.335 71.3366L182.333 170.536L186.497 168.132L186.501 68.9318ZM207.858 188.422L198.816 193.642L205.131 180.108C206.122 178.123 206.857 176.326 207.345 174.718C207.832 173.11 208.073 171.445 208.073 169.728C208.073 168.647 207.97 167.652 207.763 166.751C207.557 165.843 207.225 165.138 206.764 164.629C206.308 164.117 205.717 163.834 204.997 163.779C204.279 163.723 203.404 163.989 202.379 164.581C201.354 165.173 200.475 165.953 199.734 166.918C198.997 167.887 198.39 168.927 197.916 170.05C197.439 171.168 197.081 172.309 196.848 173.465C196.615 174.627 196.491 175.681 196.469 176.635C196.469 177.166 196.659 177.315 197.038 177.096L197.577 176.785C197.685 176.723 197.805 176.58 197.943 176.349C198.076 176.119 198.162 175.824 198.197 175.473C198.343 173.591 198.766 171.901 199.468 170.401C200.17 168.901 201.139 167.791 202.379 167.076C203.675 166.327 204.666 166.279 205.347 166.941C206.032 167.599 206.371 168.856 206.371 170.712C206.371 171.349 206.337 171.959 206.263 172.539C206.194 173.122 206.061 173.736 205.876 174.381C205.686 175.033 205.428 175.74 205.104 176.511C204.781 177.281 204.367 178.169 203.863 179.183L196.872 193.975C196.623 194.478 196.446 194.891 196.347 195.214C196.247 195.537 196.2 195.835 196.2 196.108V196.732C196.2 197.341 196.398 197.532 196.794 197.304L207.856 190.918C208.27 190.679 208.476 190.254 208.476 189.645V189.021C208.479 188.382 208.271 188.183 207.858 188.422ZM124.723 212.869C124.228 212.101 123.569 211.645 122.751 211.495C121.932 211.344 120.911 211.623 119.688 212.328C118.465 213.035 117.444 213.935 116.626 215.032C115.807 216.127 115.149 217.344 114.645 218.689C114.141 220.035 113.783 221.461 113.563 222.967C113.347 224.478 113.232 226.005 113.214 227.532C113.179 229.933 113.179 232.26 113.214 234.515C113.231 236.023 113.352 237.413 113.58 238.661C113.805 239.917 114.162 240.931 114.657 241.701C115.152 242.463 115.806 242.927 116.625 243.078C117.443 243.229 118.464 242.951 119.687 242.245C120.91 241.539 121.931 240.637 122.749 239.542C123.568 238.446 124.227 237.223 124.722 235.889C125.218 234.549 125.571 233.124 125.787 231.613C126.003 230.11 126.131 228.576 126.166 227.038C126.201 224.743 126.201 222.415 126.166 220.054C126.149 218.545 126.028 217.156 125.8 215.902C125.577 214.651 125.219 213.639 124.723 212.869ZM124.465 227.808C124.431 230.686 124.026 233.161 123.251 235.241C122.479 237.324 121.291 238.827 119.688 239.752C118.09 240.675 116.902 240.545 116.13 239.352C115.355 238.169 114.951 236.16 114.916 233.322C114.894 232.147 114.886 231.052 114.886 230.037C114.886 229.029 114.894 227.935 114.916 226.763C114.951 223.944 115.355 221.482 116.13 219.37C116.902 217.26 118.09 215.745 119.688 214.822C121.273 213.906 122.458 214.051 123.238 215.266C124.021 216.478 124.431 218.47 124.465 221.249C124.482 222.4 124.495 223.48 124.495 224.488C124.495 225.503 124.482 226.611 124.465 227.808ZM204.985 157.455L209.149 155.05L209.152 55.8506L204.988 58.2542L204.985 157.455ZM214.771 52.6094L214.769 186.925L218.933 184.523L218.937 50.2046L214.771 52.6094ZM139.795 201.137L129.376 207.153C128.983 207.379 128.785 207.811 128.785 208.449V209.071C128.785 209.681 128.983 209.872 129.376 209.646L138.581 204.331L131.646 233.635C131.608 233.824 131.59 233.959 131.59 234.04C131.59 234.292 131.641 234.474 131.741 234.597C131.841 234.719 131.969 234.737 132.129 234.645L132.697 234.316C132.895 234.202 133.042 233.998 133.141 233.709C133.241 233.412 133.326 233.137 133.399 232.87L140.226 204.006C140.295 203.688 140.347 203.412 140.373 203.193C140.403 202.969 140.416 202.69 140.416 202.359V201.735C140.416 201.097 140.209 200.898 139.795 201.137ZM140.459 194.799L142.539 193.597L142.54 94.3994L140.46 95.5982L140.459 194.799ZM160.636 182.916L169.545 177.924L169.547 78.7262L160.636 83.7182V182.916ZM135.643 98.309L127.308 102.991L127.307 202.189L135.641 197.508L135.643 98.309ZM164.214 187.039L163.702 187.336C163.577 187.408 163.461 187.488 163.353 187.577C163.245 187.666 163.125 187.822 163 188.033L157.254 198.161C157.108 198.412 157.03 198.655 157.008 198.906C156.991 199.149 157.038 199.353 157.146 199.51L157.444 199.921C157.677 200.259 157.956 200.149 158.279 199.605L163.108 191.087V215.843C163.108 216.453 163.306 216.643 163.702 216.415L164.214 216.119C164.61 215.89 164.808 215.471 164.808 214.86V187.611C164.809 187.001 164.611 186.81 164.214 187.039ZM154.204 219.406L145.163 224.626L151.477 211.092C152.469 209.107 153.204 207.31 153.691 205.702C154.179 204.094 154.42 202.429 154.42 200.712C154.42 199.631 154.317 198.636 154.11 197.735C153.904 196.827 153.571 196.122 153.111 195.613C152.653 195.101 152.064 194.818 151.344 194.763C150.625 194.707 149.751 194.973 148.726 195.565C147.701 196.157 146.821 196.937 146.081 197.902C145.344 198.871 144.737 199.912 144.263 201.034C143.785 202.152 143.428 203.293 143.195 204.449C142.962 205.611 142.837 206.664 142.816 207.619C142.816 208.15 143.005 208.299 143.385 208.08L143.923 207.769C144.031 207.707 144.151 207.564 144.289 207.333C144.423 207.103 144.509 206.808 144.544 206.457C144.69 204.575 145.113 202.885 145.815 201.385C146.517 199.885 147.486 198.775 148.726 198.06C150.022 197.311 151.013 197.263 151.693 197.925C152.379 198.583 152.718 199.84 152.718 201.696C152.718 202.333 152.683 202.943 152.61 203.523C152.542 204.106 152.407 204.72 152.223 205.365C152.033 206.017 151.775 206.724 151.452 207.495C151.129 208.265 150.715 209.153 150.211 210.167L143.22 224.961C142.971 225.463 142.794 225.876 142.695 226.199C142.595 226.522 142.548 226.821 142.548 227.093V227.717C142.548 228.327 142.746 228.517 143.142 228.289L154.204 221.903C154.618 221.664 154.824 221.239 154.824 220.63V220.006C154.824 219.366 154.618 219.167 154.204 219.406Z" fill="#455A64"/>
</svg>
