<svg width="17" height="17" viewBox="0 0 17 17" fill="none" xmlns="http://www.w3.org/2000/svg">
<g clip-path="url(#clip0_10_447)">
<g clip-path="url(#clip1_10_447)">
<g clip-path="url(#clip2_10_447)">
<path d="M15.9999 3.09821V2.01786H14.3793V0.9375H13.299V2.01786H12.7588C12.163 2.01786 11.6784 2.50294 11.6784 3.09821V4.17857C11.6784 4.77439 12.163 5.25893 12.7588 5.25893H14.9195V6.33929H11.6784V7.41964H13.299V8.5H14.3793V7.41964H14.9195C15.5153 7.41964 15.9999 6.9351 15.9999 6.33929V5.25893C15.9999 4.66365 15.5153 4.17857 14.9195 4.17857H12.7588V3.09821H15.9999ZM12.7588 10.6607V11.7411H14.1557L12.2186 13.6782L10.9805 12.4395C10.8794 12.3383 10.7422 12.2814 10.5992 12.2813H10.5981C10.5272 12.2812 10.4571 12.2952 10.3916 12.3224C10.3262 12.3495 10.2668 12.3894 10.2167 12.4395L7.35702 15.2987L8.12083 16.0625L10.5986 13.5852L11.8367 14.8239C11.938 14.9251 12.0754 14.982 12.2186 14.982C12.3619 14.982 12.4992 14.9251 12.6005 14.8239L14.9195 12.5049V13.9018H15.9999V10.6607H12.7588ZM1.95524 16.0625H0.874878V13.3616C0.874878 11.2765 2.57104 9.58036 4.65613 9.58036H7.8972C8.97161 9.58036 9.99849 10.0395 10.7153 10.8406L9.91045 11.5612C9.65694 11.2781 9.34663 11.0516 8.99975 10.8965C8.65287 10.7413 8.2772 10.661 7.8972 10.6607H4.65613C3.16686 10.6607 1.95524 11.8723 1.95524 13.3616V16.0625ZM6.27666 8.5C7.27951 8.5 8.24129 8.10162 8.95041 7.3925C9.65953 6.68338 10.0579 5.7216 10.0579 4.71875C10.0579 3.7159 9.65953 2.75412 8.95041 2.045C8.24129 1.33588 7.27951 0.9375 6.27666 0.9375C5.27381 0.9375 4.31204 1.33588 3.60292 2.045C2.89379 2.75412 2.49541 3.7159 2.49541 4.71875C2.49541 5.7216 2.89379 6.68338 3.60292 7.3925C4.31204 8.10162 5.27381 8.5 6.27666 8.5ZM6.27666 2.01786C6.99299 2.01786 7.67997 2.30241 8.18648 2.80893C8.693 3.31545 8.97756 4.00243 8.97756 4.71875C8.97756 5.43507 8.693 6.12205 8.18648 6.62857C7.67997 7.13509 6.99299 7.41964 6.27666 7.41964C5.56034 7.41964 4.87336 7.13509 4.36684 6.62857C3.86033 6.12205 3.57577 5.43507 3.57577 4.71875C3.57577 4.00243 3.86033 3.31545 4.36684 2.80893C4.87336 2.30241 5.56034 2.01786 6.27666 2.01786Z" fill="#757575"/>
</g>
</g>
</g>
<defs>
<clipPath id="clip0_10_447">
<rect width="16.5" height="16.5" fill="white" transform="translate(0.0499268 0.25)"/>
</clipPath>
<clipPath id="clip1_10_447">
<rect width="16.5" height="16.5" fill="white" transform="translate(0.187378 0.25)"/>
</clipPath>
<clipPath id="clip2_10_447">
<rect width="16.5" height="16.5" fill="white" transform="translate(0.187378 0.25)"/>
</clipPath>
</defs>
</svg>
