<svg width="32" height="32" viewBox="0 0 32 32" fill="none" xmlns="http://www.w3.org/2000/svg">
<path d="M16 12V2.66663L13.4824 5.33329" stroke="#2B2B2B" stroke-width="1.5" stroke-linecap="round" stroke-linejoin="round"/>
<path d="M16 2.66663L18.5176 5.33329" stroke="#2B2B2B" stroke-width="1.5" stroke-linecap="round" stroke-linejoin="round"/>
<path d="M3.38672 17.3334H8.93802C9.41637 17.3334 9.84436 17.6134 10.0584 18.0667L11.5311 21.1867C11.9591 22.0934 12.8277 22.6667 13.7844 22.6667H18.228C19.1846 22.6667 20.0532 22.0934 20.4812 21.1867L21.954 18.0667C22.168 17.6134 22.6086 17.3334 23.0743 17.3334H28.5627" stroke="#2B2B2B" stroke-width="1.5" stroke-linecap="round" stroke-linejoin="round"/>
<path d="M9.70611 6.83997C5.24996 7.5333 3.41211 10.3066 3.41211 16V20C3.41211 26.6666 5.92971 29.3333 12.2237 29.3333H19.7765C26.0705 29.3333 28.5881 26.6666 28.5881 20V16C28.5881 10.3066 26.7502 7.5333 22.2941 6.83997" stroke="#2B2B2B" stroke-width="1.5" stroke-linecap="round" stroke-linejoin="round"/>
</svg>
