<svg width="32" height="30" viewBox="0 0 32 30" fill="none" xmlns="http://www.w3.org/2000/svg">
<path d="M2.5 12V25.5C2.5 26.2956 2.81607 27.0587 3.37868 27.6213C3.94129 28.1839 4.70435 28.5 5.5 28.5H26.5C27.2956 28.5 28.0587 28.1839 28.6213 27.6213C29.1839 27.0587 29.5 26.2956 29.5 25.5V12" stroke="#7D7C81" stroke-width="1.5"/>
<path d="M20.2495 28.5V19.5C20.2495 18.7044 19.9334 17.9413 19.3708 17.3787C18.8082 16.8161 18.0452 16.5 17.2495 16.5H14.2495C13.4539 16.5 12.6908 16.8161 12.1282 17.3787C11.5656 17.9413 11.2495 18.7044 11.2495 19.5V28.5" stroke="#7D7C81" stroke-width="1.5" stroke-miterlimit="16"/>
<path d="M30.727 11.046L28.186 2.1525C28.1322 1.96447 28.0187 1.79908 27.8625 1.68135C27.7063 1.56362 27.5161 1.49996 27.3205 1.5H21.25L21.9625 10.056C21.9733 10.1936 22.0167 10.3266 22.0893 10.444C22.1618 10.5614 22.2613 10.6598 22.3795 10.731C22.9645 11.0805 24.1075 11.7255 25 12C26.524 12.4695 28.75 12.3 30.019 12.144C30.1424 12.1281 30.2608 12.0854 30.3659 12.0189C30.4711 11.9525 30.5605 11.8639 30.628 11.7594C30.6954 11.6548 30.7392 11.5369 30.7563 11.4136C30.7734 11.2904 30.7634 11.165 30.727 11.046Z" stroke="#7D7C81" stroke-width="1.5"/>
<path d="M19 12C19.852 11.7375 20.932 11.139 21.535 10.782C21.6756 10.6983 21.7896 10.5766 21.8639 10.4309C21.9382 10.2852 21.9698 10.1214 21.955 9.9585L21.25 1.5H10.75L10.045 9.9585C10.0299 10.1216 10.0613 10.2857 10.1357 10.4317C10.21 10.5778 10.3242 10.6997 10.465 10.7835C11.068 11.139 12.148 11.7375 13 12C15.2395 12.69 16.7605 12.69 19 12Z" stroke="#7D7C81" stroke-width="1.5"/>
<path d="M3.81402 2.1525L1.27302 11.0475C1.23715 11.1663 1.22756 11.2914 1.24492 11.4143C1.26227 11.5371 1.30616 11.6547 1.37352 11.7589C1.44088 11.8631 1.53012 11.9514 1.63502 12.0176C1.73993 12.0839 1.85799 12.1265 1.98102 12.1425C3.24852 12.3 5.47602 12.468 7.00002 12C7.89252 11.7255 9.03702 11.0805 9.62052 10.7325C9.73892 10.6612 9.83855 10.5625 9.91109 10.4448C9.98363 10.3272 10.027 10.1938 10.0375 10.056L10.75 1.5H4.67952C4.48395 1.49996 4.29369 1.56362 4.13753 1.68135C3.98136 1.79908 3.8678 1.96447 3.81402 2.1525Z" stroke="#7D7C81" stroke-width="1.5"/>
</svg>
