<svg width="32" height="32" viewBox="0 0 32 32" fill="none" xmlns="http://www.w3.org/2000/svg">
<path d="M1.75 7.75C1.75 6.1587 2.38214 4.63258 3.50736 3.50736C4.63258 2.38214 6.1587 1.75 7.75 1.75C9.3413 1.75 10.8674 2.38214 11.9926 3.50736C13.1179 4.63258 13.75 6.1587 13.75 7.75C13.75 9.3413 13.1179 10.8674 11.9926 11.9926C10.8674 13.1179 9.3413 13.75 7.75 13.75C6.1587 13.75 4.63258 13.1179 3.50736 11.9926C2.38214 10.8674 1.75 9.3413 1.75 7.75ZM18.25 24.25C18.25 22.6587 18.8821 21.1326 20.0074 20.0074C21.1326 18.8821 22.6587 18.25 24.25 18.25C25.8413 18.25 27.3674 18.8821 28.4926 20.0074C29.6179 21.1326 30.25 22.6587 30.25 24.25C30.25 25.8413 29.6179 27.3674 28.4926 28.4926C27.3674 29.6179 25.8413 30.25 24.25 30.25C22.6587 30.25 21.1326 29.6179 20.0074 28.4926C18.8821 27.3674 18.25 25.8413 18.25 24.25ZM30.25 7.75C30.25 4.921 30.25 3.508 29.371 2.629C28.492 1.75 27.079 1.75 24.25 1.75C21.421 1.75 20.008 1.75 19.129 2.629C18.25 3.508 18.25 4.921 18.25 7.75C18.25 10.579 18.25 11.992 19.129 12.871C20.008 13.75 21.421 13.75 24.25 13.75C27.079 13.75 28.492 13.75 29.371 12.871C30.25 11.992 30.25 10.579 30.25 7.75ZM13.75 24.25C13.75 21.421 13.75 20.008 12.871 19.129C11.992 18.25 10.579 18.25 7.75 18.25C4.921 18.25 3.508 18.25 2.629 19.129C1.75 20.008 1.75 21.421 1.75 24.25C1.75 27.079 1.75 28.492 2.629 29.371C3.508 30.25 4.921 30.25 7.75 30.25C10.579 30.25 11.992 30.25 12.871 29.371C13.75 28.492 13.75 27.079 13.75 24.25Z" stroke="white" stroke-width="2"/>
</svg>
