<svg width="37" height="36" viewBox="0 0 37 36" fill="none" xmlns="http://www.w3.org/2000/svg">
<path d="M25.25 14.1L11.75 6.315" stroke="#7D7C81" stroke-width="2" stroke-linecap="round" stroke-linejoin="round"/>
<path d="M32 24V12C31.9995 11.4739 31.8606 10.9572 31.5973 10.5017C31.334 10.0463 30.9556 9.66805 30.5 9.40501L20 3.40501C19.5439 3.1417 19.0266 3.00308 18.5 3.00308C17.9734 3.00308 17.4561 3.1417 17 3.40501L6.5 9.40501C6.04439 9.66805 5.66597 10.0463 5.40269 10.5017C5.13941 10.9572 5.00054 11.4739 5 12V24C5.00054 24.5261 5.13941 25.0428 5.40269 25.4983C5.66597 25.9537 6.04439 26.332 6.5 26.595L17 32.595C17.4561 32.8583 17.9734 32.9969 18.5 32.9969C19.0266 32.9969 19.5439 32.8583 20 32.595L30.5 26.595C30.9556 26.332 31.334 25.9537 31.5973 25.4983C31.8606 25.0428 31.9995 24.5261 32 24Z" stroke="#7D7C81" stroke-width="2" stroke-linecap="round" stroke-linejoin="round"/>
<path d="M5.40503 10.44L18.5 18.015L31.595 10.44" stroke="#7D7C81" stroke-width="2" stroke-linecap="round" stroke-linejoin="round"/>
<path d="M18.5 33.12V18" stroke="#7D7C81" stroke-width="2" stroke-linecap="round" stroke-linejoin="round"/>
</svg>
