<svg width="36" height="36" viewBox="0 0 36 36" fill="none" xmlns="http://www.w3.org/2000/svg">
<path d="M11.25 20.25H20.25V22.5H11.25V20.25ZM11.25 14.625H24.75V16.875H11.25V14.625ZM11.25 25.875H16.875V28.125H11.25V25.875Z" fill="#7D7C81"/>
<path d="M28.125 5.625H24.75V4.5C24.75 3.90326 24.5129 3.33097 24.091 2.90901C23.669 2.48705 23.0967 2.25 22.5 2.25H13.5C12.9033 2.25 12.331 2.48705 11.909 2.90901C11.4871 3.33097 11.25 3.90326 11.25 4.5V5.625H7.875C7.27826 5.625 6.70597 5.86205 6.28401 6.28401C5.86205 6.70597 5.625 7.27826 5.625 7.875V31.5C5.625 32.0967 5.86205 32.669 6.28401 33.091C6.70597 33.5129 7.27826 33.75 7.875 33.75H28.125C28.7217 33.75 29.294 33.5129 29.716 33.091C30.1379 32.669 30.375 32.0967 30.375 31.5V7.875C30.375 7.27826 30.1379 6.70597 29.716 6.28401C29.294 5.86205 28.7217 5.625 28.125 5.625ZM13.5 4.5H22.5V9H13.5V4.5ZM28.125 31.5H7.875V7.875H11.25V11.25H24.75V7.875H28.125V31.5Z" fill="#7D7C81"/>
</svg>
